<svg width="31" height="31" viewBox="0 0 31 31" fill="none" xmlns="http://www.w3.org/2000/svg">
<path fill-rule="evenodd" clip-rule="evenodd" d="M11.75 14.3184C14.5075 14.3184 16.75 12.0759 16.75 9.31836C16.75 6.56086 14.5075 4.31836 11.75 4.31836C8.9925 4.31836 6.75 6.56086 6.75 9.31836C6.75 12.0759 8.9925 14.3184 11.75 14.3184ZM21.75 16.8184C23.8175 16.8184 25.5 15.1359 25.5 13.0684C25.5 11.0009 23.8175 9.31836 21.75 9.31836C19.6825 9.31836 18 11.0009 18 13.0684C18 15.1359 19.6825 16.8184 21.75 16.8184ZM28 24.3184C28 25.0084 27.4412 25.5684 26.75 25.5684H20.5C20.5 26.2584 19.9412 26.8184 19.25 26.8184H4.25C3.55875 26.8184 3 26.2584 3 25.5684C3 20.7434 6.92625 16.8184 11.75 16.8184C14.1588 16.8184 16.3412 17.7971 17.925 19.3759C19.0112 18.5359 20.3487 18.0684 21.75 18.0684C25.1963 18.0684 28 20.8721 28 24.3184Z" fill="white"/>
</svg>
