<svg width="23" height="26" viewBox="0 0 23 26" fill="none" xmlns="http://www.w3.org/2000/svg">
<path d="M4 3.41309V8.41309H19V3.41309H21.5087C22.1937 3.41309 22.75 3.96934 22.75 4.65434V24.6718C22.75 25.3568 22.1937 25.9131 21.5087 25.9131H1.49125C0.80625 25.9131 0.25 25.3568 0.25 24.6718V4.65434C0.25 3.96934 0.80625 3.41309 1.49125 3.41309H4ZM7.75 19.6631H5.25V22.1631H7.75V19.6631ZM7.75 15.9131H5.25V18.4131H7.75V15.9131ZM7.75 12.1631H5.25V14.6631H7.75V12.1631ZM16.5 0.913086V5.91309H6.5V0.913086H16.5Z" fill="white"/>
</svg>
