<svg width="31" height="31" viewBox="0 0 31 31" fill="none" xmlns="http://www.w3.org/2000/svg">
<path fill-rule="evenodd" clip-rule="evenodd" d="M25.5005 12.0876H5.50049V10.8376C5.50049 10.1489 6.06049 9.58765 6.75049 9.58765H24.2505C24.9405 9.58765 25.5005 10.1489 25.5005 10.8376V12.0876ZM21.7505 19.5876H19.2505C18.563 19.5876 18.0005 19.0251 18.0005 18.3376C18.0005 17.6501 18.563 17.0876 19.2505 17.0876H21.7505C22.438 17.0876 23.0005 17.6501 23.0005 18.3376C23.0005 19.0251 22.438 19.5876 21.7505 19.5876ZM14.2505 19.5876H9.25049C8.56299 19.5876 8.00049 19.0251 8.00049 18.3376C8.00049 17.6501 8.56299 17.0876 9.25049 17.0876H14.2505C14.938 17.0876 15.5005 17.6501 15.5005 18.3376C15.5005 19.0251 14.938 19.5876 14.2505 19.5876ZM24.2505 7.08765H6.75049C4.68299 7.08765 3.00049 8.77015 3.00049 10.8376V20.8376C3.00049 22.9051 4.68299 24.5876 6.75049 24.5876H24.2505C26.318 24.5876 28.0005 22.9051 28.0005 20.8376V10.8376C28.0005 8.77015 26.318 7.08765 24.2505 7.08765Z" fill="white"/>
</svg>
