<svg width="31" height="31" viewBox="0 0 31 31" fill="none" xmlns="http://www.w3.org/2000/svg">
<path fill-rule="evenodd" clip-rule="evenodd" d="M13.0591 14.1631C15.8166 14.1631 18.0591 11.9206 18.0591 9.16309C18.0591 6.40559 15.8166 4.16309 13.0591 4.16309C10.3016 4.16309 8.05908 6.40559 8.05908 9.16309C8.05908 11.9206 10.3016 14.1631 13.0591 14.1631ZM26.8091 7.91309H25.5591V6.66309C25.5591 5.97559 24.9966 5.41309 24.3091 5.41309C23.6216 5.41309 23.0591 5.97559 23.0591 6.66309V7.91309H21.8091C21.1216 7.91309 20.5591 8.47559 20.5591 9.16309C20.5591 9.85059 21.1216 10.4131 21.8091 10.4131H23.0591V11.6631C23.0591 12.3506 23.6216 12.9131 24.3091 12.9131C24.9966 12.9131 25.5591 12.3506 25.5591 11.6631V10.4131H26.8091C27.4966 10.4131 28.0591 9.85059 28.0591 9.16309C28.0591 8.47559 27.4966 7.91309 26.8091 7.91309ZM21.8091 25.4131C21.8091 26.1031 21.2503 26.6631 20.5591 26.6631H5.55908C4.86783 26.6631 4.30908 26.1031 4.30908 25.4131C4.30908 20.5881 8.23533 16.6631 13.0591 16.6631C17.8828 16.6631 21.8091 20.5881 21.8091 25.4131Z" fill="white"/>
</svg>
