<svg width="25" height="27" viewBox="0 0 25 27" fill="none" xmlns="http://www.w3.org/2000/svg">
<path d="M16.7707 8.34284L9.22939 15.8855C9.10204 16.0085 9.00047 16.1556 8.93059 16.3183C8.86071 16.481 8.82393 16.6559 8.82239 16.833C8.82085 17.01 8.85459 17.1856 8.92163 17.3494C8.98867 17.5133 9.08767 17.6622 9.21286 17.7874C9.33805 17.9126 9.48692 18.0116 9.65079 18.0786C9.81465 18.1456 9.99022 18.1794 10.1673 18.1778C10.3443 18.1763 10.5193 18.1395 10.6819 18.0696C10.8446 17.9998 10.9917 17.8982 11.1147 17.7708L18.6574 10.2295C19.4076 9.4793 19.8291 8.4618 19.8291 7.40084C19.8291 6.33989 19.4076 5.32238 18.6574 4.57218C17.9072 3.82197 16.8897 3.4005 15.8287 3.4005C14.7678 3.4005 13.7503 3.82197 13.0001 4.57218L5.45739 12.1148C4.82549 12.731 4.32223 13.4665 3.9768 14.2787C3.63137 15.0909 3.45065 15.9636 3.44512 16.8461C3.43959 17.7287 3.60936 18.6036 3.94459 19.4201C4.27981 20.2365 4.77382 20.9783 5.39794 21.6023C6.02207 22.2263 6.7639 22.7202 7.5804 23.0553C8.39689 23.3905 9.2718 23.5601 10.1544 23.5544C11.0369 23.5488 11.9096 23.368 12.7217 23.0224C13.5339 22.6769 14.2693 22.1735 14.8854 21.5415L22.4281 14.0002L24.3134 15.8855L16.7707 23.4282C15.904 24.2949 14.875 24.9824 13.7426 25.4515C12.6102 25.9206 11.3965 26.162 10.1707 26.162C8.94499 26.162 7.73126 25.9206 6.59883 25.4515C5.4664 24.9824 4.43745 24.2949 3.57072 23.4282C2.704 22.5615 2.01648 21.5325 1.54741 20.4001C1.07834 19.2676 0.836914 18.0539 0.836914 16.8282C0.836914 15.6024 1.07834 14.3887 1.54741 13.2563C2.01648 12.1239 2.704 11.0949 3.57072 10.2282L11.1147 2.68684C12.3721 1.47246 14.0561 0.800492 15.8041 0.815682C17.552 0.830871 19.2241 1.532 20.4602 2.76805C21.6962 4.00411 22.3974 5.67619 22.4125 7.42417C22.4277 9.17215 21.7558 10.8562 20.5414 12.1135L13.0001 19.6588C12.6285 20.0303 12.1874 20.325 11.702 20.526C11.2166 20.727 10.6963 20.8304 10.1709 20.8303C9.64552 20.8303 9.12529 20.7267 8.63991 20.5256C8.15453 20.3245 7.71352 20.0297 7.34206 19.6582C6.97059 19.2866 6.67594 18.8455 6.47494 18.3601C6.27394 17.8747 6.17052 17.3544 6.17058 16.829C6.17064 16.3036 6.27419 15.7834 6.4753 15.298C6.67642 14.8127 6.97117 14.3716 7.34272 14.0002L14.8854 6.45751L16.7707 8.34284Z" fill="#9D28AC"/>
</svg>
