<svg width="20" height="17" viewBox="0 0 20 17" fill="none" xmlns="http://www.w3.org/2000/svg">
<path fill-rule="evenodd" clip-rule="evenodd" d="M18.221 17C17.76 17 17.359 16.685 17.249 16.237C16.36 12.588 13.229 9.95198 9.454 9.55298V10.674C9.454 11.38 9.035 12.009 8.362 12.314C7.63 12.647 6.778 12.527 6.185 12.01L1.118 7.58598C0.726 7.24198 0.5 6.75498 0.5 6.24998C0.5 5.74498 0.726 5.25798 1.118 4.91398L6.185 0.489983C6.778 -0.0270174 7.63 -0.147017 8.362 0.185983C9.035 0.490983 9.454 1.11998 9.454 1.82598V3.04398C15.078 3.53698 19.5 8.14998 19.5 13.75C19.5 14.56 19.397 15.396 19.193 16.236C19.084 16.685 18.683 17 18.221 17" fill="#343C44"/>
</svg>
