<svg width="24" height="24" viewBox="0 0 24 24" fill="none" xmlns="http://www.w3.org/2000/svg">
<path fill-rule="evenodd" clip-rule="evenodd" d="M17.9659 6.72819L15.2719 4.03419L13.3239 5.98319L16.0189 8.67819L17.9659 6.72819ZM5.09087 17.9952C5.06087 17.9982 5.03087 17.9992 5.00087 17.9992C4.73687 17.9992 4.48187 17.8952 4.29287 17.7062C4.08387 17.4962 3.97787 17.2042 4.00387 16.9092L4.38287 12.7392C4.42487 12.2822 4.62687 11.8502 4.95287 11.5252L13.9489 2.52919C14.6509 1.82419 15.9239 1.85919 16.6649 2.59819L19.4029 5.33619L19.4039 5.33719C20.1689 6.10319 20.1999 7.32119 19.4719 8.05119L10.4749 17.0482C10.1499 17.3732 9.71887 17.5752 9.26087 17.6172L5.09087 17.9952ZM5.00037 19.9995H19.0004C19.5504 19.9995 20.0004 20.4495 20.0004 20.9995C20.0004 21.5495 19.5504 21.9995 19.0004 21.9995H5.00037C4.45037 21.9995 4.00037 21.5495 4.00037 20.9995C4.00037 20.4495 4.45037 19.9995 5.00037 19.9995Z" fill="black"/>
</svg>
