<svg width="16" height="12" viewBox="0 0 16 12" fill="none" xmlns="http://www.w3.org/2000/svg">
<path d="M8.00466 0C11.5993 0 14.59 2.58667 15.2173 6C14.5907 9.41333 11.5993 12 8.00466 12C4.40999 12 1.41933 9.41333 0.791992 6C1.41866 2.58667 4.40999 0 8.00466 0ZM8.00466 10.6667C9.36431 10.6664 10.6836 10.2045 11.7466 9.35678C12.8095 8.50901 13.5533 7.32552 13.856 6C13.5521 4.67554 12.808 3.49334 11.7451 2.64668C10.6822 1.80003 9.36353 1.33902 8.00466 1.33902C6.64579 1.33902 5.32712 1.80003 4.26424 2.64668C3.20137 3.49334 2.45717 4.67554 2.15333 6C2.45606 7.32552 3.19977 8.50901 4.26276 9.35678C5.32574 10.2045 6.64501 10.6664 8.00466 10.6667ZM8.00466 9C7.20901 9 6.44595 8.68393 5.88334 8.12132C5.32073 7.55871 5.00466 6.79565 5.00466 6C5.00466 5.20435 5.32073 4.44129 5.88334 3.87868C6.44595 3.31607 7.20901 3 8.00466 3C8.80031 3 9.56337 3.31607 10.126 3.87868C10.6886 4.44129 11.0047 5.20435 11.0047 6C11.0047 6.79565 10.6886 7.55871 10.126 8.12132C9.56337 8.68393 8.80031 9 8.00466 9ZM8.00466 7.66667C8.44669 7.66667 8.87061 7.49107 9.18317 7.17851C9.49573 6.86595 9.67133 6.44203 9.67133 6C9.67133 5.55797 9.49573 5.13405 9.18317 4.82149C8.87061 4.50893 8.44669 4.33333 8.00466 4.33333C7.56263 4.33333 7.13871 4.50893 6.82615 4.82149C6.51359 5.13405 6.33799 5.55797 6.33799 6C6.33799 6.44203 6.51359 6.86595 6.82615 7.17851C7.13871 7.49107 7.56263 7.66667 8.00466 7.66667Z" fill="#017849"/>
</svg>
