<svg width="19" height="18" viewBox="0 0 19 18" fill="none" xmlns="http://www.w3.org/2000/svg">
<path fill-rule="evenodd" clip-rule="evenodd" d="M12.792 0.878L17.621 5.707C18.183 6.269 18.5 7.033 18.5 7.829V15C18.5 16.657 17.157 18 15.5 18H13.5V14C13.5 12.897 12.602 12 11.5 12H7.5C6.397 12 5.5 12.897 5.5 14V18H3.5C1.843 18 0.5 16.657 0.5 15V3C0.5 1.343 1.843 0 3.5 0H5.5V7C5.5 7.552 5.947 8 6.5 8H12.5C13.053 8 13.5 7.552 13.5 7C13.5 6.448 13.053 6 12.5 6H7.5V0H10.672C11.467 0 12.23 0.316 12.792 0.878ZM7.4999 14H11.4999L11.5009 18H7.4999V14Z" fill="white"/>
</svg>
