<svg width="25" height="28" viewBox="0 0 25 28" fill="none" xmlns="http://www.w3.org/2000/svg">
<path d="M10.6667 0.666504C16.0907 0.666504 20.568 4.7145 21.2453 9.95317L24.2453 14.6718C24.4427 14.9825 24.4027 15.4452 23.9453 15.6425L21.3333 16.7598V20.6665C21.3333 22.1398 20.14 23.3332 18.6667 23.3332H16.0013L16 27.3332H4V22.4078C4 20.8345 3.41867 19.3452 2.34133 18.0012C0.876 16.1745 0 13.8558 0 11.3332C0 5.4425 4.776 0.666504 10.6667 0.666504ZM9.96 8.3505C9.048 7.4385 7.57067 7.4385 6.66 8.3505C5.748 9.26117 5.748 10.7385 6.66 11.6492L10.6667 15.6572L14.6733 11.6492C15.5853 10.7385 15.5853 9.26117 14.6733 8.3505C13.7627 7.4385 12.2853 7.4385 11.3733 8.3505L10.6667 9.05717L9.96 8.3505Z" fill="#00995D"/>
</svg>
