<svg width="14" height="14" viewBox="0 0 14 14" fill="none" xmlns="http://www.w3.org/2000/svg">
<path fill-rule="evenodd" clip-rule="evenodd" d="M9.66634 9.66658C9.66634 10.0333 9.36634 10.3333 8.99967 10.3333C8.63301 10.3333 8.33301 10.0333 8.33301 9.66658V6.99992C8.33301 6.63325 8.63301 6.33325 8.99967 6.33325C9.36634 6.33325 9.66634 6.63325 9.66634 6.99992V9.66658ZM5.66634 1.88525C5.66634 1.78192 5.80901 1.66659 5.99967 1.66659H7.99967C8.19034 1.66659 8.33301 1.78192 8.33301 1.88525V2.99992H5.66634V1.88525ZM5.66634 9.66658C5.66634 10.0333 5.36634 10.3333 4.99967 10.3333C4.63301 10.3333 4.33301 10.0333 4.33301 9.66658V6.99992C4.33301 6.63325 4.63301 6.33325 4.99967 6.33325C5.36634 6.33325 5.66634 6.63325 5.66634 6.99992V9.66658ZM12.9997 2.99992H12.333H9.66634V1.88525C9.66634 1.02925 8.91901 0.333252 7.99967 0.333252H5.99967C5.08034 0.333252 4.33301 1.02925 4.33301 1.88525V2.99992H1.66634H0.999674C0.633008 2.99992 0.333008 3.29992 0.333008 3.66659C0.333008 4.03325 0.633008 4.33325 0.999674 4.33325H1.66634V11.6666C1.66634 12.7693 2.56367 13.6666 3.66634 13.6666H10.333C11.4357 13.6666 12.333 12.7693 12.333 11.6666V4.33325H12.9997C13.3663 4.33325 13.6663 4.03325 13.6663 3.66659C13.6663 3.29992 13.3663 2.99992 12.9997 2.99992Z" fill="#EB5757"/>
</svg>
