<svg width="25" height="27" viewBox="0 0 25 27" fill="none" xmlns="http://www.w3.org/2000/svg">
<path d="M16.7707 8.3426L9.22939 15.8853C9.10204 16.0083 9.00047 16.1554 8.93059 16.3181C8.86071 16.4807 8.82393 16.6557 8.82239 16.8327C8.82085 17.0098 8.85459 17.1853 8.92163 17.3492C8.98867 17.5131 9.08767 17.6619 9.21286 17.7871C9.33805 17.9123 9.48692 18.0113 9.65079 18.0784C9.81465 18.1454 9.99022 18.1791 10.1673 18.1776C10.3443 18.1761 10.5193 18.1393 10.6819 18.0694C10.8446 17.9995 10.9917 17.8979 11.1147 17.7706L18.6574 10.2293C19.4076 9.47906 19.8291 8.46155 19.8291 7.4006C19.8291 6.33964 19.4076 5.32214 18.6574 4.57193C17.9072 3.82172 16.8897 3.40026 15.8287 3.40026C14.7678 3.40026 13.7503 3.82172 13.0001 4.57193L5.45739 12.1146C4.82549 12.7308 4.32223 13.4663 3.9768 14.2785C3.63137 15.0906 3.45065 15.9633 3.44512 16.8459C3.43959 17.7285 3.60936 18.6034 3.94459 19.4198C4.27981 20.2363 4.77382 20.978 5.39794 21.6021C6.02207 22.2261 6.7639 22.72 7.5804 23.0551C8.39689 23.3902 9.2718 23.5599 10.1544 23.5542C11.0369 23.5485 11.9096 23.3677 12.7217 23.0222C13.5339 22.6766 14.2693 22.1733 14.8854 21.5413L22.4281 13.9999L24.3134 15.8853L16.7707 23.4279C15.904 24.2947 14.875 24.9822 13.7426 25.4512C12.6102 25.9203 11.3965 26.1617 10.1707 26.1617C8.94499 26.1617 7.73126 25.9203 6.59883 25.4512C5.4664 24.9822 4.43745 24.2947 3.57072 23.4279C2.704 22.5612 2.01648 21.5323 1.54741 20.3998C1.07834 19.2674 0.836914 18.0537 0.836914 16.8279C0.836914 15.6022 1.07834 14.3885 1.54741 13.256C2.01648 12.1236 2.704 11.0947 3.57072 10.2279L11.1147 2.6866C12.3721 1.47221 14.0561 0.800248 15.8041 0.815438C17.552 0.830627 19.2241 1.53175 20.4602 2.76781C21.6962 4.00386 22.3974 5.67595 22.4125 7.42392C22.4277 9.1719 21.7558 10.8559 20.5414 12.1133L13.0001 19.6586C12.6285 20.0301 12.1874 20.3247 11.702 20.5257C11.2166 20.7267 10.6963 20.8301 10.1709 20.8301C9.64552 20.83 9.12529 20.7265 8.63991 20.5254C8.15453 20.3242 7.71352 20.0295 7.34206 19.6579C6.97059 19.2864 6.67594 18.8453 6.47494 18.3599C6.27394 17.8744 6.17052 17.3542 6.17058 16.8288C6.17064 16.3034 6.27419 15.7832 6.4753 15.2978C6.67642 14.8124 6.97117 14.3714 7.34272 13.9999L14.8854 6.45726L16.7707 8.3426Z" fill="#9D28AC"/>
</svg>
