<svg width="24" height="24" viewBox="0 0 24 24" fill="none" xmlns="http://www.w3.org/2000/svg">
<path fill-rule="evenodd" clip-rule="evenodd" d="M11.9891 7.29242L6.62715 11.6074C6.19715 11.9534 5.56815 11.8854 5.22115 11.4554C4.87515 11.0244 4.94315 10.3954 5.37315 10.0484L11.3731 5.22042C11.7441 4.92242 12.2741 4.92542 12.6401 5.23242L18.6401 10.2324C19.0651 10.5854 19.1221 11.2154 18.7681 11.6404C18.5701 11.8774 18.2861 12.0004 18.0001 12.0004C17.7741 12.0004 17.5471 11.9234 17.3601 11.7684L11.9891 7.29242ZM11.3732 12.2209C11.7442 11.9219 12.2742 11.9259 12.6402 12.2319L18.6402 17.2319C19.0642 17.5859 19.1212 18.2159 18.7682 18.6399C18.5702 18.8779 18.2862 18.9999 17.9992 18.9999C17.7742 18.9999 17.5472 18.9239 17.3602 18.7679L11.9892 14.2929L6.62725 18.6069C6.19725 18.9539 5.56825 18.8859 5.22125 18.4549C4.87425 18.0249 4.94325 17.3959 5.37325 17.0489L11.3732 12.2209Z" fill="#212121"/>
</svg>
