<svg width="24" height="30" viewBox="0 0 24 30" fill="none" xmlns="http://www.w3.org/2000/svg">
<path d="M18.6667 2.66667H22.6667C23.0203 2.66667 23.3594 2.80714 23.6095 3.05719C23.8595 3.30724 24 3.64638 24 4V28C24 28.3536 23.8595 28.6928 23.6095 28.9428C23.3594 29.1929 23.0203 29.3333 22.6667 29.3333H1.33333C0.979711 29.3333 0.640573 29.1929 0.390524 28.9428C0.140476 28.6928 0 28.3536 0 28V4C0 3.64638 0.140476 3.30724 0.390524 3.05719C0.640573 2.80714 0.979711 2.66667 1.33333 2.66667H5.33333V0H8V2.66667H16V0H18.6667V2.66667ZM5.33333 10.6667V13.3333H18.6667V10.6667H5.33333ZM5.33333 16V18.6667H18.6667V16H5.33333Z" fill="#EA1E61"/>
</svg>
