<svg width="25" height="28" viewBox="0 0 25 28" fill="none" xmlns="http://www.w3.org/2000/svg">
<path d="M10.6667 0.666748C16.0907 0.666748 20.568 4.71475 21.2453 9.95341L24.2453 14.6721C24.4427 14.9827 24.4027 15.4454 23.9453 15.6427L21.3333 16.7601V20.6667C21.3333 22.1401 20.14 23.3334 18.6667 23.3334H16.0013L16 27.3334H4V22.4081C4 20.8347 3.41867 19.3454 2.34133 18.0014C0.876 16.1747 0 13.8561 0 11.3334C0 5.44275 4.776 0.666748 10.6667 0.666748ZM9.96 8.35075C9.048 7.43875 7.57067 7.43875 6.66 8.35075C5.748 9.26142 5.748 10.7387 6.66 11.6494L10.6667 15.6574L14.6733 11.6494C15.5853 10.7387 15.5853 9.26142 14.6733 8.35075C13.7627 7.43875 12.2853 7.43875 11.3733 8.35075L10.6667 9.05742L9.96 8.35075Z" fill="#00995D"/>
</svg>
