<svg width="21" height="20" viewBox="0 0 21 20" fill="none" xmlns="http://www.w3.org/2000/svg">
<path fill-rule="evenodd" clip-rule="evenodd" d="M15.2901 7.60549L10.7221 13.6055C10.5341 13.8525 10.2431 13.9985 9.93312 14.0005H9.92612C9.61912 14.0005 9.32912 13.8585 9.13912 13.6165L6.70712 10.5095C6.36712 10.0755 6.44312 9.44649 6.87812 9.10649C7.31212 8.76549 7.94212 8.84149 8.28212 9.27749L9.91512 11.3635L13.6991 6.39449C14.0331 5.95549 14.6601 5.86949 15.1011 6.20449C15.5401 6.53949 15.6251 7.16649 15.2901 7.60549ZM10.9951 0.000488281C5.47212 0.000488281 0.995117 4.47749 0.995117 10.0005C0.995117 15.5225 5.47212 20.0005 10.9951 20.0005C16.5181 20.0005 20.9951 15.5225 20.9951 10.0005C20.9951 4.47749 16.5181 0.000488281 10.9951 0.000488281Z" fill="#C5F2E0"/>
</svg>
