<svg width="20" height="17" viewBox="0 0 20 17" fill="none" xmlns="http://www.w3.org/2000/svg">
<path fill-rule="evenodd" clip-rule="evenodd" d="M18.221 17C17.76 17 17.359 16.685 17.249 16.237C16.36 12.588 13.229 9.95201 9.454 9.55301V10.674C9.454 11.38 9.035 12.009 8.362 12.314C7.63 12.647 6.778 12.527 6.185 12.01L1.118 7.58601C0.726 7.24201 0.5 6.75501 0.5 6.25001C0.5 5.74501 0.726 5.25801 1.118 4.91401L6.185 0.490013C6.778 -0.0269868 7.63 -0.146987 8.362 0.186013C9.035 0.491013 9.454 1.12001 9.454 1.82601V3.04401C15.078 3.53701 19.5 8.15001 19.5 13.75C19.5 14.56 19.397 15.396 19.193 16.236C19.084 16.685 18.683 17 18.221 17Z" fill="#343C44"/>
</svg>
