<svg width="36" height="30" viewBox="0 0 36 30" fill="none" xmlns="http://www.w3.org/2000/svg">
<g filter="url(#filter0_d_5764_5102)">
<rect x="2" width="32" height="24" rx="8" fill="white"/>
<path fill-rule="evenodd" clip-rule="evenodd" d="M20.6663 14.6666C20.6663 15.0333 20.3663 15.3333 19.9997 15.3333C19.633 15.3333 19.333 15.0333 19.333 14.6666V11.9999C19.333 11.6333 19.633 11.3333 19.9997 11.3333C20.3663 11.3333 20.6663 11.6333 20.6663 11.9999V14.6666ZM16.6663 6.88525C16.6663 6.78192 16.809 6.66659 16.9997 6.66659H18.9997C19.1903 6.66659 19.333 6.78192 19.333 6.88525V7.99992H16.6663V6.88525ZM16.6663 14.6666C16.6663 15.0333 16.3663 15.3333 15.9997 15.3333C15.633 15.3333 15.333 15.0333 15.333 14.6666V11.9999C15.333 11.6333 15.633 11.3333 15.9997 11.3333C16.3663 11.3333 16.6663 11.6333 16.6663 11.9999V14.6666ZM23.9997 7.99992H23.333H20.6663V6.88525C20.6663 6.02925 19.919 5.33325 18.9997 5.33325H16.9997C16.0803 5.33325 15.333 6.02925 15.333 6.88525V7.99992H12.6663H11.9997C11.633 7.99992 11.333 8.29992 11.333 8.66659C11.333 9.03325 11.633 9.33325 11.9997 9.33325H12.6663V16.6666C12.6663 17.7693 13.5637 18.6666 14.6663 18.6666H21.333C22.4357 18.6666 23.333 17.7693 23.333 16.6666V9.33325H23.9997C24.3663 9.33325 24.6663 9.03325 24.6663 8.66659C24.6663 8.29992 24.3663 7.99992 23.9997 7.99992Z" fill="#EB5757"/>
<rect x="2.5" y="0.5" width="31" height="23" rx="7.5" stroke="#EB5757"/>
</g>
<defs>
<filter id="filter0_d_5764_5102" x="0" y="0" width="36" height="30" filterUnits="userSpaceOnUse" color-interpolation-filters="sRGB">
<feFlood flood-opacity="0" result="BackgroundImageFix"/>
<feColorMatrix in="SourceAlpha" type="matrix" values="0 0 0 0 0 0 0 0 0 0 0 0 0 0 0 0 0 0 127 0" result="hardAlpha"/>
<feOffset dy="4"/>
<feGaussianBlur stdDeviation="1"/>
<feColorMatrix type="matrix" values="0 0 0 0 0 0 0 0 0 0 0 0 0 0 0 0 0 0 0.15 0"/>
<feBlend mode="normal" in2="BackgroundImageFix" result="effect1_dropShadow_5764_5102"/>
<feBlend mode="normal" in="SourceGraphic" in2="effect1_dropShadow_5764_5102" result="shape"/>
</filter>
</defs>
</svg>
