<svg width="202" height="274" viewBox="0 0 202 274" fill="none" xmlns="http://www.w3.org/2000/svg">
<g clip-path="url(#clip0_3931_29105)">
<path d="M7.97387 165.66H4.52246V274H7.97387V165.66Z" fill="#13375B"/>
<path d="M132.089 165.504H2.30189C0.781262 165.504 -0.449219 164.17 -0.449219 162.522C-0.449219 160.873 0.781262 159.539 2.30189 159.539H132.089C133.61 159.539 134.84 160.873 134.84 162.522C134.84 164.17 133.619 165.504 132.089 165.504Z" fill="#001333"/>
<path d="M177.612 114.13C178.508 105.671 173.686 97.8619 165.75 95.551C165.324 90.8306 162.943 86.2947 159.333 83.3997C152.208 77.6905 139.835 75.4333 135.893 84.0321C129.952 88.1524 125.766 96.2138 128.34 102.912C122.866 109.719 126.318 120.686 135.746 125.075C136.308 132.035 140.761 138.559 147.254 140.901C148.814 141.463 151.242 142.219 151.568 142.499C151.144 142.178 157.499 155.261 172.345 147.475C187.476 139.532 188.737 121.362 177.612 114.13Z" fill="#13375B"/>
<path d="M155.719 266.06H149.808C148.969 266.06 148.165 266.393 147.572 266.986C146.979 267.579 146.645 268.384 146.645 269.222C146.645 270.061 146.979 270.865 147.572 271.458C148.165 272.051 148.969 272.384 149.808 272.384H155.719C156.134 272.384 156.545 272.302 156.928 272.143C157.312 271.985 157.66 271.752 157.954 271.458C158.248 271.164 158.48 270.816 158.639 270.432C158.798 270.049 158.88 269.638 158.88 269.222C158.88 268.384 158.547 267.579 157.954 266.987C157.361 266.394 156.557 266.06 155.719 266.06Z" fill="#001333"/>
<path d="M155.122 270.417L149.548 270.396C150.284 246.068 150.931 209.129 149.702 207.053C149.8 207.175 149.928 207.271 150.073 207.33L154.597 206.152C155.328 206.519 155.769 206.741 155.923 217.079C156 222.403 155.971 229.755 155.833 238.935C155.599 254.556 155.128 270.259 155.122 270.417Z" fill="#001333"/>
<path d="M175.148 269.226H130.394C128.333 269.226 126.662 271.017 126.662 273.244C126.655 273.424 126.721 273.599 126.843 273.73C126.966 273.862 127.136 273.94 127.315 273.946H178.225C178.405 273.94 178.575 273.862 178.697 273.73C178.82 273.599 178.885 273.424 178.879 273.244C178.88 271.024 177.209 269.226 175.148 269.226Z" fill="#13375B"/>
<path d="M95.841 153.127L125.414 144.887C125.414 144.887 131.645 136.515 139.66 125.285C142.282 127.879 143.738 131.867 146.376 134.436L126.802 156.092C126.452 156.479 126.026 156.788 125.551 157C125.075 157.212 124.561 157.323 124.04 157.325L96.8638 157.414L87.5645 158.156V152.198L95.841 153.127Z" fill="#F48C7F"/>
<path d="M138.415 146.848C138.415 146.848 148.565 136.44 151.176 131.919C153.788 127.397 149.398 130.339 144.907 129.149C143.209 128.699 143.639 118.744 140.43 121.983C135.162 127.291 128.541 136.573 128.541 136.573L138.415 146.848Z" fill="#D3D9F4"/>
<path d="M152.846 117.415C152.846 117.415 161.953 115.624 166.11 119.09C170.268 122.557 165.215 153.444 165.215 158.564C165.215 163.684 168.07 178.146 168.07 178.146C168.07 178.146 140.462 182.983 136.078 175.294C136.078 175.294 134.824 146.015 135.016 142.332C135.207 138.649 139.294 123.592 140.426 121.98C141.558 120.368 152.846 117.415 152.846 117.415Z" fill="#B9C5EF"/>
<path d="M152.903 103.322C152.903 103.322 152.951 103.594 153.037 104.058C153.449 106.282 155.042 113.659 156.116 115.687C157.415 118.137 151.669 125.953 146.14 125.002C144.494 124.719 147.53 117.82 147.385 117.091C147.105 115.692 146.726 113.784 146.339 111.828C146.12 110.724 145.898 109.605 145.69 108.553L144.616 103.12L152.903 103.322Z" fill="#F7A491"/>
<path d="M153.037 104.058C152.951 103.594 152.903 103.322 152.903 103.322L144.616 103.116L145.69 108.549C145.896 109.596 146.117 110.699 146.335 111.804C147.614 111.625 148.95 110.997 150.292 109.834C151.663 108.633 152.696 107.094 153.288 105.37C153.186 104.854 153.1 104.402 153.037 104.058Z" fill="#F47458"/>
<path d="M119.743 248.617C119.743 248.617 128.123 258.667 128.179 259.545C128.234 260.423 127.846 269.964 126.85 270.831C125.854 271.698 124.09 272.486 125.032 273.47C125.748 274.213 130.047 273.894 133.677 273.694C134.736 273.636 136.063 265.186 136.482 263.945C137.091 262.141 138.572 258.078 138.019 256.822C137.75 256.209 136.459 254.95 134.641 253.777C132.726 252.541 125.41 242.358 125.41 242.358L119.743 248.617Z" fill="#F48C7F"/>
<path d="M134.514 253.719C134.514 253.719 128.888 269.566 126.685 270.331C126.101 270.534 125.75 271.048 125.22 272.291C125.06 272.664 125.22 273.903 125.22 273.903H134.492C134.492 273.903 135.977 266.917 136.563 263.855C136.563 263.855 139.667 256.36 139.323 255.677C138.979 254.995 134.514 253.719 134.514 253.719Z" fill="#B9C5EF"/>
<path d="M69.5497 253.443C69.5497 253.443 62.706 263.079 63.3078 266.128C63.6302 267.76 65.0667 269.89 64.2428 271.433C63.4189 272.975 62.4768 273.353 62.4768 273.353L41.1307 273.697C39.9682 273.715 40.7366 272.968 41.668 272.28C43.2029 271.155 44.4406 270.41 49.3428 268.043C49.6634 267.889 50.8276 267.148 51.2467 266.893C52.3106 266.245 53.3798 265.224 54.2915 264.206C55.8247 262.503 62.5645 248.621 62.5645 248.621L69.5497 253.443Z" fill="#F7A491"/>
<path d="M51.2555 266.892C56.901 268.337 61.0742 267.356 63.4079 266.415C64.0098 268.119 64.8086 270.256 64.3859 271.487C63.8665 272.995 63.1321 273.337 62.4766 273.353C57.3201 273.489 43.5879 273.672 39.6564 273.724C39.5337 273.726 39.4131 273.692 39.3089 273.627C39.2047 273.562 39.1214 273.469 39.0687 273.358C39.0161 273.247 38.9964 273.123 39.012 273.001C39.0276 272.88 39.0778 272.765 39.1567 272.671C40.1329 271.508 50.8346 267.148 51.2555 266.892Z" fill="#B9C5EF"/>
<path d="M94.3024 193.997C94.3024 193.997 102.776 203.671 104.936 205.202C107.096 206.734 127.839 244.936 127.839 244.936L120.45 250.332C120.45 250.332 101.913 227.222 93.208 214.849C85.8467 204.392 88.5512 205.055 84.2293 198.692C83.0732 196.998 82.568 194.944 82.807 192.907C83.0459 190.87 84.0129 188.989 85.5297 187.609C85.9201 187.25 86.3458 186.881 86.8067 186.5C93.2134 181.159 137.136 175.147 137.136 175.147L165.227 177.899C165.227 177.899 142.276 193.997 141.42 194.425C140.564 194.853 109.718 199.351 109.082 199.351C108.447 199.351 94.3024 193.997 94.3024 193.997Z" fill="#A34A3B"/>
<path d="M168.079 178.146C168.079 178.146 172.897 192.605 165.67 199.351C158.443 206.098 115.503 205.349 101.37 205.349C101.37 205.349 95.5882 221.2 94.9452 223.77C94.3022 226.341 66.2485 259.541 66.2485 259.541L58.5469 254.615C58.5469 254.615 88.7427 195.924 91.098 193.348C93.4532 190.772 127.077 180.497 135.429 178.139C143.781 175.782 168.079 178.146 168.079 178.146Z" fill="#B75742"/>
<path d="M112.208 152.137L137.849 146.461C137.849 146.461 147.121 134.545 156.028 124.289C158.649 126.883 160.105 130.869 162.745 133.438L143.168 155.096C142.463 155.877 140.817 157.292 139.765 157.296H113.132L103.931 157.158V151.205L112.208 152.137Z" fill="#F7A491"/>
<path d="M154.782 145.856C154.782 145.856 164.932 135.446 167.543 130.924C170.155 126.403 168.219 118.825 163.734 117.636C159.249 116.446 144.913 135.577 144.913 135.577L154.782 145.856Z" fill="#D3D9F4"/>
<path d="M127.051 206.832L129.639 196.059C130.534 192.379 132.599 189.09 135.524 186.687C138.45 184.283 142.076 182.895 145.859 182.731L178.636 181.405L179.646 178.069L145.73 179.44C141.23 179.634 136.915 181.286 133.435 184.147C129.955 187.007 127.499 190.921 126.436 195.299L123.687 206.746C124.618 206.777 125.754 206.809 127.051 206.832Z" fill="#001333"/>
<path d="M171.007 201.094C171.007 201.094 125.983 201.865 121.288 201.094C116.594 200.324 114.563 206.209 115.965 209.292C117.368 212.375 121.218 213.566 126.891 213.848C132.563 214.129 179.785 215.46 181.116 214.206C182.203 213.174 196.519 164.225 201.726 146.325C202.225 144.608 202.023 142.762 201.163 141.194C200.303 139.626 198.855 138.463 197.139 137.961C195.429 137.459 193.591 137.653 192.024 138.5C190.457 139.347 189.288 140.779 188.771 142.484L171.007 201.094Z" fill="#466EB6"/>
<path d="M145.549 85.7107C145.549 85.7107 149.602 85.2413 152.142 88.5339C154.682 91.8266 157.42 102.014 151.11 107.552C144.8 113.089 138.564 106.821 137.64 100.175C136.715 93.5284 136.355 85.4706 145.549 85.7107Z" fill="#F7A491"/>
<path d="M145.096 84.6215C145.096 84.6215 150.51 94.3077 154.384 94.7556C158.258 95.2034 158.765 100.354 158.765 100.354C158.765 100.354 157.381 88.4945 153.546 86.2015C149.711 83.9085 145.096 84.6215 145.096 84.6215Z" fill="#13375B"/>
<path d="M153.367 97.1883C153.053 98.9081 153.686 100.486 154.784 100.712C155.882 100.938 157.024 99.7267 157.338 98.007C157.651 96.2872 157.021 94.709 155.923 94.4832C154.825 94.2575 153.679 95.4685 153.367 97.1883Z" fill="#F7A491"/>
<path d="M50.944 124.601H92.2607C92.795 124.6 93.3175 124.758 93.7613 125.056C94.2051 125.354 94.5501 125.777 94.7521 126.272L107.469 157.305H130.251C130.557 157.305 130.851 157.426 131.067 157.643C131.283 157.859 131.405 158.153 131.405 158.459C131.405 158.61 131.375 158.76 131.317 158.9C131.259 159.04 131.174 159.167 131.067 159.274C130.96 159.381 130.832 159.465 130.693 159.523C130.553 159.581 130.403 159.611 130.251 159.61H65.4249C64.5539 159.609 63.7018 159.356 62.9711 158.882C62.2403 158.408 61.662 157.732 61.3054 156.938L48.4956 128.398C48.3098 127.989 48.2297 127.539 48.2626 127.091C48.2955 126.643 48.4404 126.209 48.6841 125.832C48.9277 125.454 49.2623 125.143 49.6571 124.928C50.052 124.713 50.4944 124.6 50.944 124.601Z" fill="#B75742"/>
<path d="M73.1891 142.671C73.4667 144.064 74.6829 145 75.9044 144.752C77.1259 144.505 77.8871 143.181 77.6077 141.788C77.3283 140.394 76.1139 139.459 74.8924 139.704C73.6709 139.95 72.9097 141.277 73.1891 142.671Z" fill="white"/>
<path d="M6.24748 208.008L126.524 208.008V204.339L6.24748 204.339V208.008Z" fill="#13375B"/>
<path d="M128.172 165.66H124.72V274H128.172V165.66Z" fill="#13375B"/>
<path d="M45.8946 95.5169C45.8946 96.3389 45.6509 97.1424 45.1943 97.8259C44.7377 98.5094 44.0887 99.0421 43.3295 99.3566C42.5702 99.6712 41.7347 99.7535 40.9286 99.5931C40.1226 99.4328 39.3822 99.0369 38.801 98.4557C38.2199 97.8745 37.8242 97.1339 37.6638 96.3277C37.5035 95.5215 37.5858 94.6858 37.9003 93.9264C38.2148 93.167 38.7474 92.5179 39.4307 92.0612C40.1141 91.6045 40.9175 91.3608 41.7393 91.3608C42.285 91.3608 42.8253 91.4683 43.3295 91.6771C43.8336 91.886 44.2917 92.1921 44.6775 92.5781C45.0634 92.964 45.3695 93.4222 45.5783 93.9264C45.7871 94.4307 45.8946 94.9711 45.8946 95.5169Z" fill="#D3D9F4"/>
<path d="M33.8445 156.785H32.3722C32.3513 156.785 32.3306 156.781 32.3112 156.773C32.2919 156.765 32.2743 156.754 32.2595 156.739C32.2447 156.724 32.233 156.706 32.2249 156.687C32.2169 156.668 32.2128 156.647 32.2128 156.626V151.198C32.2128 151.156 32.2296 151.115 32.2595 151.085C32.2894 151.055 32.3299 151.039 32.3722 151.039H33.8445C33.8868 151.039 33.9273 151.055 33.9572 151.085C33.9871 151.115 34.0039 151.156 34.0039 151.198V156.626C34.0041 156.647 34.0002 156.668 33.9923 156.687C33.9843 156.707 33.9726 156.724 33.9577 156.739C33.9429 156.754 33.9252 156.766 33.9058 156.774C33.8863 156.782 33.8655 156.786 33.8445 156.785Z" fill="#B75742"/>
<path d="M16.2741 87.8138C17.3487 85.596 18.7816 84.2041 20.5261 83.672C23.2127 82.8534 25.7829 84.3223 25.8098 84.3367L26.6534 82.8838C26.5226 82.8086 23.4169 81.0368 20.0371 82.0651C17.8287 82.7387 16.0555 84.4244 14.7642 87.0811L16.2741 87.8138Z" fill="#1D2F49"/>
<path d="M27.5861 80.8273L37.1684 87.1922C37.2916 87.2746 37.3772 87.4025 37.4064 87.5479C37.4356 87.6932 37.4061 87.8443 37.3242 87.9679L34.4585 92.2924C34.418 92.3537 34.3658 92.4065 34.3049 92.4477C34.2439 92.4888 34.1755 92.5175 34.1034 92.5322C34.0314 92.5468 33.9572 92.5471 33.885 92.533C33.8129 92.5189 33.7442 92.4907 33.683 92.45L24.0935 86.0869C23.97 86.0048 23.884 85.877 23.8545 85.7316C23.825 85.5862 23.8542 85.4351 23.9359 85.3112L26.8016 80.9849C26.8421 80.9223 26.8948 80.8685 26.9565 80.8265C27.0181 80.7846 27.0875 80.7554 27.1606 80.7407C27.2338 80.726 27.3091 80.7261 27.3821 80.741C27.4552 80.7558 27.5246 80.7852 27.5861 80.8273Z" fill="#B75742"/>
<path d="M45.9932 84.3724L33.2193 103.607C31.949 102.771 30.8562 101.693 30.0037 100.434C29.1513 99.1748 28.5559 97.7596 28.2518 96.2696C27.9477 94.7797 27.9409 93.2443 28.2317 91.7517C28.5226 90.2592 29.1053 88.8387 29.9466 87.5721C30.7878 86.3054 31.8709 85.2174 33.1337 84.3705C34.3965 83.5237 35.8142 82.9347 37.3052 82.6374C38.7962 82.3401 40.3313 82.3403 41.8223 82.6381C43.3132 82.9358 44.7307 83.5252 45.9932 84.3724Z" fill="#466EB6"/>
<path d="M3.32812 122.152L12.7797 86.2177L18.2836 87.6669L8.83211 123.601L3.32812 122.152ZM14.028 88.3512L5.46847 120.903L7.58373 121.46L16.1433 88.9155L14.028 88.3512Z" fill="#B75742"/>
<path d="M3.09326 123.852L8.48083 122.012L20.4811 157.176L15.0953 159.016L3.09326 123.852ZM7.39185 124.237L5.32137 124.945L16.1914 156.784L18.2601 156.067L7.39185 124.237Z" fill="#B75742"/>
<path d="M32.528 104.931L33.7352 105.732C33.7522 105.743 33.7714 105.751 33.7915 105.755C33.8116 105.759 33.8324 105.759 33.8525 105.755C33.8726 105.751 33.8918 105.743 33.9088 105.732C33.9259 105.72 33.9405 105.706 33.9519 105.689L48.1946 84.2399C48.2061 84.2228 48.214 84.2037 48.2181 84.1836C48.2221 84.1634 48.2221 84.1427 48.2182 84.1225C48.2142 84.1024 48.2062 84.0833 48.1948 84.0662C48.1834 84.0491 48.1687 84.0345 48.1516 84.0231L46.9444 83.2223C46.9274 83.2109 46.9082 83.2029 46.8881 83.1989C46.868 83.1948 46.8473 83.1948 46.8271 83.1988C46.807 83.2028 46.7878 83.2107 46.7708 83.2221C46.7537 83.2336 46.7391 83.2482 46.7277 83.2653L32.485 104.714C32.4736 104.731 32.4656 104.75 32.4615 104.77C32.4575 104.79 32.4575 104.811 32.4615 104.831C32.4655 104.852 32.4734 104.871 32.4848 104.888C32.4962 104.905 32.5109 104.919 32.528 104.931Z" fill="#1D2F49"/>
<path d="M2.34131 123.576C2.34131 124.397 2.5847 125.199 3.0407 125.882C3.4967 126.565 4.14483 127.097 4.90313 127.411C5.66143 127.725 6.49585 127.807 7.30086 127.647C8.10586 127.487 8.84531 127.091 9.42569 126.511C10.0061 125.93 10.4013 125.191 10.5614 124.386C10.7216 123.581 10.6394 122.746 10.3253 121.988C10.0112 121.229 9.47928 120.581 8.79683 120.125C8.11438 119.669 7.31202 119.425 6.49124 119.425C5.39061 119.425 4.33507 119.863 3.5568 120.641C2.77854 121.419 2.34131 122.475 2.34131 123.576Z" fill="#F47458"/>
<path d="M45.6047 159.472H7.00508V154.793C7.00603 154.527 7.11194 154.273 7.29979 154.084C7.48763 153.896 7.7422 153.79 8.00809 153.788H44.5981C44.7305 153.788 44.8616 153.814 44.984 153.865C45.1063 153.916 45.2175 153.99 45.3111 154.084C45.4047 154.177 45.479 154.289 45.5297 154.411C45.5804 154.533 45.6064 154.664 45.6064 154.797V159.476L45.6047 159.472Z" fill="#466EB6"/>
</g>
<defs>
<clipPath id="clip0_3931_29105">
<rect width="202" height="274" fill="white"/>
</clipPath>
</defs>
</svg>
