<svg width="29" height="45" viewBox="0 0 29 45" fill="none" xmlns="http://www.w3.org/2000/svg">
<path d="M2.52146 10.0269C3.55173 10.0269 4.85313 11.2441 6.45276 13.6515C10.7636 18.7908 13.3665 22.0368 14.2883 23.3622H14.4238C15.1559 22.6318 18.5992 18.3851 24.7808 10.649C25.079 10.3785 25.6213 10.1621 26.4075 10.0269C28.0072 10.4055 28.8206 11.1359 28.8206 12.1638V12.9211C28.8206 13.4351 27.3023 15.4638 24.2928 18.9802L17.596 27.4196C25.079 36.4 28.8477 41.1065 28.8477 41.5123V42.2697C28.8477 43.5139 28.0343 44.2713 26.4347 44.5418H26.3262C25.3502 44.5418 24.2385 43.568 23.0185 41.6475L14.4509 31.1794C7.69994 39.5647 4.17532 43.8926 3.82286 44.1361C3.41617 44.3795 2.98237 44.5148 2.54857 44.5148H2.44012C1.0845 44.5148 0.298239 43.6221 0.0271141 41.8639C0.0271141 41.2147 1.62674 39.0508 4.82602 35.4532L11.2517 27.2573L0.244011 13.5433L0 12.5154C0.352462 10.8383 1.19295 10.0269 2.52146 10.0269Z" fill="#00995D"/>
<path d="M19.3586 5.04984C19.3586 7.72772 17.1896 9.89167 14.5055 9.89167C11.8213 9.89167 9.65234 7.72772 9.65234 5.04984C9.65234 2.37195 11.8213 0.208008 14.5055 0.208008C17.1896 0.208008 19.3586 2.37195 19.3586 5.04984Z" fill="#00995D"/>
</svg>
