<svg width="182" height="41" viewBox="0 0 182 41" fill="none" xmlns="http://www.w3.org/2000/svg">
<path d="M88.1503 8.91724C89.0859 8.91724 90.2678 10.0227 91.7206 12.209C95.6356 16.8765 97.9994 19.8243 98.8366 21.0281H98.9597C99.6245 20.3648 102.752 16.508 108.366 9.48224C108.637 9.23659 109.129 9.04006 109.843 8.91724C111.296 9.26115 112.034 9.92442 112.034 10.8579V11.5458C112.034 12.0125 110.656 13.8549 107.922 17.0484L101.841 24.7129C108.637 32.8687 112.059 37.1431 112.059 37.5115V38.1994C112.059 39.3294 111.32 40.0172 109.868 40.2629H109.769C108.883 40.2629 107.873 39.3785 106.765 37.6344L98.9843 28.1275C92.8532 35.7428 89.6523 39.6733 89.3322 39.8944C88.9628 40.1155 88.5689 40.2383 88.1749 40.2383H88.0764C86.8453 40.2383 86.1312 39.4277 85.885 37.8309C85.885 37.2413 87.3377 35.2761 90.2432 32.0089L96.0788 24.5655L86.082 12.1108L85.8604 11.1773C86.1804 9.6542 86.9438 8.91724 88.1503 8.91724Z" fill="#00995D"/>
<path d="M1.502 9.82617C2.48691 9.82617 3.2256 11.1773 3.71806 13.8549L9.55368 31.7386H10.8095C15.1923 17.7608 17.4823 10.6614 17.6792 10.3912C18.0732 10.0718 18.4918 9.89987 18.935 9.82617C19.8214 9.82617 20.4862 10.9071 20.8802 13.0443L26.9374 31.7386H28.1932C32.4037 18.2767 34.6937 11.2264 35.0138 10.514C35.457 10.0473 35.8263 9.82617 36.1464 9.82617C37.2052 10.0227 37.7469 10.4894 37.7469 11.2264L28.7595 39.1329C28.3656 39.5013 27.9716 39.6979 27.6023 39.6979H27.5038C26.5189 39.6979 25.7802 38.3959 25.2631 35.8165C21.5697 24.7129 19.7476 18.7926 19.7476 18.0065H18.1963L11.3758 39.0592C11.0557 39.4768 10.6863 39.6733 10.2185 39.6733H10.12C9.40595 39.6733 8.88886 39.1574 8.56877 38.1502L0 11.3247C0.221606 10.3175 0.714064 9.82617 1.502 9.82617Z" fill="#6F6F6E"/>
<path d="M61.7052 9.33496C67.5654 9.33496 72.1206 12.1109 75.3709 17.6872C76.4789 19.849 77.0206 22.2073 77.0206 24.7621V25.3026C76.8236 26.3835 76.3558 26.9239 75.5925 26.9239H49.9354C51.0927 30.8789 53.3088 33.7531 56.5836 35.5218C58.4796 36.2588 60.2524 36.6027 61.9268 36.6027C63.872 36.6027 65.9895 36.0131 68.3287 34.8586H68.7719C69.683 35.0551 70.1508 35.4973 70.1508 36.1851V36.529C70.1508 37.9784 67.59 39.0347 62.4685 39.698H61.7298C56.2635 39.698 51.9053 37.1432 48.5812 32.0335C47.2761 29.6507 46.6113 27.145 46.6113 24.4919C46.6113 18.9401 49.246 14.5183 54.5153 11.2265C57.0514 9.9491 59.4399 9.33496 61.7052 9.33496ZM49.7138 23.9023H73.8196C73.8196 21.6177 72.8101 19.1121 70.8156 16.3853C68.0579 13.8059 65.3494 12.5285 62.6408 12.5285H61.3604C57.3469 12.5285 54.0474 14.4692 51.462 18.3751C50.551 19.9473 49.9847 21.7897 49.7138 23.9023Z" fill="#6F6F6E"/>
<path d="M135.943 9.33496C141.804 9.33496 146.359 12.1109 149.609 17.6872C150.717 19.849 151.259 22.2073 151.259 24.7621V25.3026C151.062 26.3835 150.594 26.9239 149.831 26.9239H124.174C125.331 30.8789 127.547 33.7531 130.822 35.5218C132.718 36.2588 134.491 36.6027 136.165 36.6027C138.11 36.6027 140.228 36.0131 142.567 34.8586H143.01C143.921 35.0551 144.389 35.4973 144.389 36.1851V36.529C144.389 37.9784 141.828 39.0347 136.707 39.698H135.968C130.526 39.698 126.144 37.1432 122.819 32.0335C121.514 29.6507 120.85 27.145 120.85 24.4919C120.85 18.9401 123.484 14.5183 128.754 11.2265C131.29 9.9491 133.703 9.33496 135.943 9.33496ZM123.952 23.9023H148.058C148.058 21.6177 147.048 19.1121 145.054 16.3853C142.296 13.8059 139.588 12.5285 136.879 12.5285H135.599C131.585 12.5285 128.286 14.4692 125.7 18.3751C124.814 19.9473 124.223 21.7897 123.952 23.9023Z" fill="#6F6F6E"/>
<path d="M161.575 9.13833C162.609 9.40856 163.126 9.8016 163.126 10.342V14.6656C167.288 10.9808 171.227 9.11377 174.921 9.11377C176.915 9.11377 179.008 9.58052 181.199 10.514C181.593 10.9316 181.79 11.3247 181.79 11.7177V11.7914C181.618 12.7986 181.15 13.2899 180.362 13.2899C178.22 12.6021 176.57 12.2582 175.388 12.2582H174.699C169.774 12.2582 166.155 14.813 163.865 19.898C163.372 21.2737 163.126 22.7968 163.126 24.5164V38.3468C163.126 39.0837 162.609 39.5259 161.6 39.6733H161.526C160.787 39.6733 160.295 39.1329 160.098 38.052V11.1036C160.245 9.8016 160.738 9.13833 161.575 9.13833Z" fill="#6F6F6E"/>
<path d="M103.441 4.39723C103.441 6.82922 101.471 8.79447 99.0335 8.79447C96.5958 8.79447 94.626 6.82922 94.626 4.39723C94.626 1.96524 96.5958 0 99.0335 0C101.471 0 103.441 1.96524 103.441 4.39723Z" fill="#00995D"/>
</svg>
