<svg width="440" height="810" viewBox="0 0 440 810" fill="none" xmlns="http://www.w3.org/2000/svg">
<path d="M-40.4113 179.679C-21.6104 179.679 2.13802 201.892 31.3288 245.823C109.996 339.608 157.493 398.841 174.314 423.028H176.788C190.147 409.7 252.981 332.204 365.786 191.032C371.228 186.096 381.124 182.147 395.472 179.679C424.662 186.59 439.505 199.917 439.505 218.674V232.495C439.505 241.874 411.799 278.894 356.881 343.063L234.675 497.069C371.228 660.946 440 746.834 440 754.238V768.059C440 790.765 425.157 804.586 395.966 809.522H393.987C376.176 809.522 355.891 791.752 333.627 756.706L177.283 565.68C54.0878 718.699 -10.2309 797.676 -16.6627 802.118C-24.0841 806.561 -32.0003 809.029 -39.9165 809.029H-41.8955C-66.6335 809.029 -80.9814 792.74 -85.929 760.655C-85.929 748.809 -56.7383 709.32 1.64326 643.67L118.901 494.107L-81.971 243.848L-86.4238 225.091C-79.992 194.488 -64.6545 179.679 -40.4113 179.679Z" fill="url(#paint0_linear_1220_1799)"/>
<path d="M266.831 88.8569C266.831 137.724 227.25 177.213 178.269 177.213C129.288 177.213 89.707 137.724 89.707 88.8569C89.707 39.9898 129.288 0.501221 178.269 0.501221C227.25 0.501221 266.831 39.9898 266.831 88.8569Z" fill="url(#paint1_linear_1220_1799)"/>
<defs>
<linearGradient id="paint0_linear_1220_1799" x1="313.141" y1="686.659" x2="299.878" y2="322.797" gradientUnits="userSpaceOnUse">
<stop stop-color="#E5E5E5" stop-opacity="0.68"/>
<stop offset="1" stop-color="white"/>
</linearGradient>
<linearGradient id="paint1_linear_1220_1799" x1="224.147" y1="142.742" x2="221.043" y2="40.6135" gradientUnits="userSpaceOnUse">
<stop stop-color="#E5E5E5" stop-opacity="0.68"/>
<stop offset="1" stop-color="white"/>
</linearGradient>
</defs>
</svg>
