<svg width="178" height="71" viewBox="0 0 178 71" fill="none" xmlns="http://www.w3.org/2000/svg">
<path d="M86.3115 8.79468C87.2277 8.79468 88.3849 9.88494 89.8074 12.0412C93.6408 16.6445 95.9553 19.5519 96.775 20.7391H96.8956C97.5465 20.0849 100.608 16.2811 106.105 9.35192C106.371 9.10964 106.853 8.91582 107.552 8.79468C108.974 9.13387 109.698 9.78802 109.698 10.7087V11.3871C109.698 11.8474 108.348 13.6645 105.671 16.8141L99.7164 24.3733C106.371 32.417 109.722 36.6326 109.722 36.9961V37.6744C109.722 38.7889 108.999 39.4673 107.576 39.7096H107.48C106.612 39.7096 105.623 38.8374 104.538 37.1172L96.9197 27.741C90.9164 35.2516 87.7822 39.1281 87.4688 39.3462C87.1071 39.5642 86.7214 39.6854 86.3356 39.6854H86.2392C85.0337 39.6854 84.3345 38.8858 84.0934 37.311C84.0934 36.7295 85.5159 34.7913 88.3608 31.569L94.0748 24.2279L84.2863 11.9443L84.0693 11.0237C84.3828 9.52152 85.1301 8.79468 86.3115 8.79468Z" fill="white"/>
<path d="M1.47068 9.69116C2.43506 9.69116 3.15834 11.0237 3.64053 13.6646L9.35447 31.3025H10.5841C14.8755 17.5168 17.1177 10.5149 17.3106 10.2484C17.6963 9.93344 18.1062 9.76385 18.5402 9.69116C19.4081 9.69116 20.0591 10.7572 20.4448 12.865L26.3758 31.3025H27.6053C31.7281 18.0256 33.9702 11.0722 34.2837 10.3695C34.7176 9.90921 35.0793 9.69116 35.3927 9.69116C36.4294 9.88499 36.9598 10.3453 36.9598 11.0722L28.1599 38.5952C27.7741 38.9586 27.3883 39.1524 27.0267 39.1524H26.9303C25.9659 39.1524 25.2426 37.8683 24.7363 35.3244C21.1199 24.3733 19.3358 18.5344 19.3358 17.7591H17.8169L11.1386 38.5225C10.8251 38.9343 10.4635 39.1282 10.0054 39.1282H9.90899C9.20982 39.1282 8.70352 38.6194 8.39009 37.626L0 11.1691C0.216985 10.1757 0.699174 9.69116 1.47068 9.69116Z" fill="white"/>
<path d="M60.4187 9.20654C66.1568 9.20654 70.6171 11.9443 73.7995 17.4441C74.8844 19.5761 75.4148 21.902 75.4148 24.4217V24.9547C75.222 26.0208 74.7639 26.5538 74.0165 26.5538H48.8944C50.0276 30.4545 52.1974 33.2892 55.404 35.0336C57.2604 35.7604 58.9963 36.0996 60.6357 36.0996C62.5404 36.0996 64.6138 35.5181 66.9042 34.3794H67.3382C68.2302 34.5732 68.6883 35.0093 68.6883 35.6877V36.0269C68.6883 37.4564 66.1809 38.4982 61.1661 39.1523H60.4429C55.0906 39.1523 50.8232 36.6326 47.5684 31.5932C46.2906 29.2431 45.6396 26.7718 45.6396 24.1552C45.6396 18.6797 48.2194 14.3186 53.3788 11.0721C55.8621 9.81224 58.2007 9.20654 60.4187 9.20654ZM48.6774 23.5737H72.2806C72.2806 21.3205 71.2921 18.8493 69.3392 16.16C66.639 13.616 63.987 12.3562 61.3349 12.3562H60.0812C56.1514 12.3562 52.9207 14.2702 50.3892 18.1224C49.4972 19.673 48.9426 21.4901 48.6774 23.5737Z" fill="white"/>
<path d="M133.108 9.20654C138.846 9.20654 143.307 11.9443 146.489 17.4441C147.574 19.5761 148.104 21.902 148.104 24.4217V24.9547C147.911 26.0208 147.453 26.5538 146.706 26.5538H121.584C122.717 30.4545 124.887 33.2892 128.093 35.0336C129.95 35.7604 131.686 36.0996 133.325 36.0996C135.23 36.0996 137.303 35.5181 139.594 34.3794H140.028C140.92 34.5732 141.378 35.0093 141.378 35.6877V36.0269C141.378 37.4564 138.87 38.4982 133.856 39.1523H133.132C127.804 39.1523 123.513 36.6326 120.258 31.5932C118.98 29.2431 118.329 26.7718 118.329 24.1552C118.329 18.6797 120.909 14.3186 126.068 11.0721C128.552 9.81224 130.914 9.20654 133.108 9.20654ZM121.367 23.5737H144.97C144.97 21.3205 143.982 18.8493 142.029 16.16C139.328 13.616 136.676 12.3562 134.024 12.3562H132.771C128.841 12.3562 125.61 14.2702 123.079 18.1224C122.211 19.673 121.632 21.4901 121.367 23.5737Z" fill="white"/>
<path d="M158.206 9.01275C159.219 9.27926 159.725 9.66691 159.725 10.1999V14.4641C163.8 10.8299 167.657 8.98853 171.274 8.98853C173.227 8.98853 175.276 9.44886 177.422 10.3695C177.807 10.7814 178 11.169 178 11.5567V11.6294C177.831 12.6227 177.373 13.1073 176.602 13.1073C174.504 12.4289 172.889 12.0897 171.732 12.0897H171.057C166.235 12.0897 162.691 14.6094 160.449 19.6246C159.966 20.9814 159.725 22.4835 159.725 24.1795V37.8198C159.725 38.5467 159.219 38.9828 158.23 39.1281H158.158C157.435 39.1281 156.953 38.5951 156.76 37.5291V10.951C156.904 9.66691 157.387 9.01275 158.206 9.01275Z" fill="white"/>
<path d="M101.284 4.33681C101.284 6.73538 99.3548 8.67362 96.9679 8.67362C94.5811 8.67362 92.6523 6.73538 92.6523 4.33681C92.6523 1.93824 94.5811 0 96.9679 0C99.3548 0 101.284 1.93824 101.284 4.33681Z" fill="white"/>
<path d="M62.1326 70.9397C61.8657 70.9397 61.648 70.855 61.4794 70.6857C61.3108 70.5163 61.2266 70.2975 61.2266 70.0293V60.1409C61.2406 59.0399 61.5005 58.0517 62.0062 57.1765C62.5259 56.2872 63.2212 55.5885 64.0922 55.0803C64.9631 54.558 65.9464 54.2968 67.042 54.2968C68.1658 54.2968 69.1631 54.558 70.0341 55.0803C70.919 55.5885 71.6144 56.2872 72.1201 57.1765C72.6398 58.0659 72.8997 59.0752 72.8997 60.2044C72.8997 61.3196 72.6538 62.3219 72.1622 63.2112C71.6846 64.1005 71.0244 64.8063 70.1816 65.3286C69.3387 65.8368 68.3835 66.0909 67.316 66.0909C66.4169 66.0909 65.5952 65.9003 64.8507 65.5192C64.1062 65.1239 63.4952 64.6087 63.0176 63.9734V70.0293C63.0176 70.2975 62.9333 70.5163 62.7647 70.6857C62.6102 70.855 62.3995 70.9397 62.1326 70.9397ZM67.042 64.4604C67.8287 64.4604 68.531 64.2769 69.1491 63.9099C69.7672 63.5429 70.2518 63.0347 70.603 62.3854C70.9682 61.736 71.1508 61.0091 71.1508 60.2044C71.1508 59.3857 70.9682 58.6587 70.603 58.0235C70.2518 57.3742 69.7672 56.866 69.1491 56.499C68.531 56.1178 67.8287 55.9273 67.042 55.9273C66.2835 55.9273 65.5882 56.1178 64.9561 56.499C64.338 56.866 63.8534 57.3742 63.5022 58.0235C63.151 58.6587 62.9754 59.3857 62.9754 60.2044C62.9754 61.0091 63.151 61.736 63.5022 62.3854C63.8534 63.0347 64.338 63.5429 64.9561 63.9099C65.5882 64.2769 66.2835 64.4604 67.042 64.4604Z" fill="white"/>
<path d="M92.8336 66.0909C91.9486 66.0909 91.0918 65.9497 90.263 65.6674C89.4482 65.3709 88.7951 64.9545 88.3034 64.4181C88.1348 64.2346 88.0646 64.0228 88.0927 63.7829C88.1208 63.5429 88.2332 63.3382 88.4298 63.1688C88.6546 62.9994 88.8793 62.9359 89.1041 62.9783C89.3429 63.0065 89.5466 63.1053 89.7151 63.2747C90.0101 63.6276 90.4315 63.917 90.9794 64.1428C91.5272 64.3546 92.1312 64.4604 92.7914 64.4604C93.7607 64.4604 94.4701 64.2981 94.9196 63.9734C95.3691 63.6347 95.6009 63.2253 95.6149 62.7453C95.629 62.2654 95.4042 61.8631 94.9406 61.5384C94.4911 61.2137 93.7186 60.9597 92.6229 60.7761C91.2041 60.5362 90.1646 60.1339 89.5044 59.5692C88.8583 59.0046 88.5352 58.327 88.5352 57.5365C88.5352 56.8166 88.7318 56.2166 89.1252 55.7367C89.5185 55.2567 90.0312 54.8968 90.6633 54.6568C91.3095 54.4168 92.0048 54.2968 92.7493 54.2968C93.6905 54.2968 94.5052 54.4592 95.1935 54.7839C95.8818 55.0944 96.4367 55.5179 96.8581 56.0543C97.0266 56.2519 97.0969 56.4637 97.0688 56.6895C97.0407 56.9013 96.9283 57.0777 96.7316 57.2189C96.535 57.3318 96.3102 57.3671 96.0574 57.3248C95.8186 57.2824 95.6149 57.1695 95.4463 56.986C95.0952 56.6048 94.6948 56.3296 94.2453 56.1602C93.7958 55.9908 93.2831 55.9061 92.7072 55.9061C91.9908 55.9061 91.4008 56.0472 90.9372 56.3296C90.4877 56.6119 90.263 56.9789 90.263 57.4306C90.263 57.7412 90.3402 58.0094 90.4948 58.2352C90.6633 58.4611 90.9583 58.6658 91.3797 58.8493C91.8011 59.0187 92.3911 59.174 93.1496 59.3151C94.2032 59.4986 95.032 59.7527 95.636 60.0774C96.2541 60.4021 96.6965 60.7903 96.9634 61.242C97.2303 61.6796 97.3638 62.1666 97.3638 62.703C97.3638 63.3523 97.1741 63.9311 96.7949 64.4393C96.4296 64.9475 95.9029 65.3498 95.2146 65.6462C94.5403 65.9426 93.7466 66.0909 92.8336 66.0909Z" fill="white"/>
<path d="M113.968 65.985C113.701 65.985 113.484 65.9003 113.315 65.7309C113.146 65.5615 113.062 65.3427 113.062 65.0745V55.3132C113.062 55.0309 113.146 54.8121 113.315 54.6568C113.484 54.4874 113.701 54.4027 113.968 54.4027C114.235 54.4027 114.446 54.4874 114.6 54.6568C114.769 54.8121 114.853 55.0309 114.853 55.3132V65.0745C114.853 65.3427 114.769 65.5615 114.6 65.7309C114.446 65.9003 114.235 65.985 113.968 65.985ZM113.947 52.3065C113.61 52.3065 113.322 52.1865 113.083 51.9465C112.844 51.7065 112.725 51.4101 112.725 51.0572C112.725 50.7043 112.844 50.4149 113.083 50.1891C113.336 49.9491 113.631 49.8291 113.968 49.8291C114.291 49.8291 114.572 49.9491 114.811 50.1891C115.064 50.4149 115.19 50.7043 115.19 51.0572C115.19 51.4101 115.064 51.7065 114.811 51.9465C114.572 52.1865 114.284 52.3065 113.947 52.3065Z" fill="white"/>
</svg>
