<svg width="28" height="28" viewBox="0 0 28 28" fill="none" xmlns="http://www.w3.org/2000/svg">
<path fill-rule="evenodd" clip-rule="evenodd" d="M4.60649 7H23.3933C24.0023 7 24.5005 7.49817 24.5005 8.10717V8.22617C24.5005 8.83517 24.0023 9.33333 23.3933 9.33333H4.60649C3.99749 9.33333 3.50049 8.83517 3.50049 8.22617V8.10717C3.50049 7.49817 3.99749 7 4.60649 7ZM23.3933 12.8333H4.60649C3.99749 12.8333 3.50049 13.3315 3.50049 13.9405V14.0595C3.50049 14.6685 3.99749 15.1667 4.60649 15.1667H23.3933C24.0023 15.1667 24.5005 14.6685 24.5005 14.0595V13.9405C24.5005 13.3315 24.0023 12.8333 23.3933 12.8333ZM23.3933 18.6667H4.60649C3.99749 18.6667 3.50049 19.1648 3.50049 19.7738V19.8928C3.50049 20.5018 3.99749 21 4.60649 21H23.3933C24.0023 21 24.5005 20.5018 24.5005 19.8928V19.7738C24.5005 19.1648 24.0023 18.6667 23.3933 18.6667Z" fill="#017849"/>
</svg>
