<svg width="179" height="199" viewBox="0 0 179 199" fill="none" xmlns="http://www.w3.org/2000/svg">
<g clip-path="url(#clip0_3928_23624)">
<path d="M8.51652 199H4.90039L12.6069 132.215H16.2231L8.51652 199Z" fill="#0E2E35"/>
<path d="M49.335 199H52.9511L45.243 132.215H41.6284L49.335 199Z" fill="#0E2E35"/>
<path d="M71.7973 199H68.1812L75.8877 132.215H79.5038L71.7973 199Z" fill="#0E2E35"/>
<path d="M112.615 199H116.23L108.523 132.215H104.907L112.615 199Z" fill="#0E2E35"/>
<path d="M69.0612 139.472H19.7437C13.963 139.472 8.79826 134.8 8.20618 129.037L0.0555709 49.6687C-0.536506 43.9052 3.67011 39.2335 9.45082 39.2335H58.7683C64.549 39.2335 69.7138 43.9052 70.3059 49.6687L78.4565 129.039C79.047 134.8 74.8419 139.472 69.0612 139.472Z" fill="#E25A44"/>
<path d="M82.7556 139.472H33.4381C27.6574 139.472 22.4926 134.8 21.9005 129.037L13.7499 49.6687C13.1578 43.9052 17.3644 39.2335 23.1452 39.2335H72.4627C78.2434 39.2335 83.4081 43.9052 84.0002 49.6687L92.1508 129.039C92.7429 134.8 88.5363 139.472 82.7556 139.472Z" fill="#F47458"/>
<path d="M89.3637 143.131H19.4604C14.0441 143.131 9.20248 138.753 8.6486 133.353C8.09472 127.953 12.0355 123.575 17.4518 123.575H87.3551C92.7714 123.575 97.613 127.953 98.1669 133.353C98.7224 138.755 94.7816 143.131 89.3637 143.131Z" fill="#E25A44"/>
<path d="M106.816 143.131H36.9125C31.4963 143.131 26.6546 138.753 26.1007 133.353C25.5469 127.953 29.4877 123.575 34.9039 123.575H104.807C110.224 123.575 115.065 127.953 115.619 133.353C116.175 138.755 112.232 143.131 106.816 143.131Z" fill="#F47458"/>
<path d="M80.7784 67.0098L85.3765 79.711C85.3765 79.711 73.979 82.5753 73.6909 82.6705C73.4028 82.7657 70.9136 70.1613 70.9136 70.1613L80.7784 67.0098Z" fill="#AD5A3B"/>
<path d="M94.8213 172.22C94.8213 172.22 86.416 182.27 86.3603 183.142C86.3046 184.017 86.6945 193.56 87.6941 194.435C88.6936 195.309 91.6301 195.929 90.6863 196.913C89.9733 197.656 84.4838 197.497 80.8454 197.297C79.7838 197.239 78.4516 188.79 78.0314 187.549C77.4203 185.745 75.9353 181.684 76.4908 180.427C76.7613 179.815 78.0553 178.556 79.8809 177.382C81.8004 176.146 89.1393 165.965 89.1393 165.965L94.8213 172.22Z" fill="#AD5A3B"/>
<path d="M79.997 177.32C79.997 177.32 85.6408 193.165 87.85 193.93C88.4373 194.133 91.2513 194.649 91.7828 195.89C91.942 196.264 91.7828 197.513 91.7828 197.513H80.0177C80.0177 197.513 78.5295 190.532 77.9422 187.465C77.9422 187.465 74.8275 179.97 75.1744 179.29C75.5198 178.607 79.997 177.32 79.997 177.32Z" fill="#14424D"/>
<path d="M145.102 176.887C145.102 176.887 151.966 186.522 151.361 189.569C151.038 191.202 149.598 193.338 150.424 194.874C151.25 196.41 152.194 196.794 152.194 196.794L173.606 197.137C174.772 197.156 174.002 196.409 173.061 195.721C171.522 194.595 170.279 193.851 165.363 191.485C165.043 191.331 163.875 190.591 163.453 190.336C162.385 189.687 161.314 188.666 160.391 187.643C158.853 185.94 152.092 172.061 152.092 172.061L145.102 176.887Z" fill="#AD5A3B"/>
<path d="M120.274 117.447C120.274 117.447 111.775 127.118 109.607 128.651C107.439 130.183 86.6356 168.38 86.6356 168.38L94.0477 173.775C94.0477 173.775 112.641 150.66 121.374 138.296C128.757 127.842 126.037 128.505 130.379 122.142C132.77 118.638 132.227 113.902 129.076 111.059C128.684 110.706 128.258 110.337 127.795 109.952C121.368 104.61 77.3135 98.601 77.3135 98.601L49.1357 101.353C49.1357 101.353 72.1583 117.448 73.0162 117.877C73.8757 118.305 104.809 122.802 105.453 122.802C106.096 122.802 120.274 117.447 120.274 117.447Z" fill="#6292DE"/>
<path d="M46.2709 101.599C46.2709 101.599 41.4372 116.055 48.6869 122.802C55.9367 129.548 99.0072 128.799 113.185 128.799C113.185 128.799 118.985 144.649 119.63 147.218C120.274 149.788 148.414 182.984 148.414 182.984L156.147 178.058C156.147 178.058 125.859 119.375 123.496 116.805C121.132 114.235 87.4075 103.955 79.0293 101.599C70.6527 99.2421 46.2709 101.599 46.2709 101.599Z" fill="#86B1F2"/>
<path d="M78.5373 16.6461C78.4322 6.02052 70.0731 -2.80242 59.4809 0.831487C57.0983 1.64872 53.7639 3.52121 51.9495 5.26358C47.0441 9.97338 45.0419 16.3716 40.022 20.9084C41.4226 22.3223 43.1463 23.8409 45.2377 25.3611L48.4129 22.1985L46.8595 26.4894C53.0286 30.5962 62.0084 34.5411 74.8145 36.2946C77.4581 29.3029 78.593 22.3144 78.5373 16.6461Z" fill="#133742"/>
<path d="M78.4402 54.6085C73.1593 38.6384 67.2544 39.3191 67.2544 39.3191L71.8207 72.8939C75.0819 72.0052 79.3267 70.0264 82.5848 69.1092C81.5057 64.0614 79.7406 58.5423 78.4402 54.6085Z" fill="#D9D9D9"/>
<path d="M53.742 36.4517C53.742 36.4517 44.0125 35.8329 40.164 40.0237C36.3171 44.2178 48.703 77.3784 49.4033 82.7134C50.1036 88.0484 45.8365 102.235 45.8365 102.235C45.8365 102.235 68.6904 106.831 75.2223 102.511C75.2223 102.511 75.9226 64.1456 75.2223 60.334C74.522 56.5223 68.6904 41.0235 67.2913 39.5001C65.8891 37.9767 53.742 36.4517 53.742 36.4517Z" fill="white"/>
<path d="M56.5767 93.8658C54.2259 92.5297 48.5487 91.3998 48.5487 91.3998C40.8564 109.668 43.4046 125.478 52.7935 127.729C62.1824 129.981 71.2561 130.933 103.777 129.664C112.479 109.669 121.793 107.248 121.793 107.248C106.537 99.4071 56.5767 93.8658 56.5767 93.8658Z" fill="white"/>
<path d="M56.9808 23.4617C56.9808 23.4617 56.9299 23.7473 56.8407 24.2345C56.4062 26.5719 54.7366 34.3253 53.6082 36.4564C52.2442 39.0319 58.2764 47.2487 64.0826 46.2458C65.811 45.9474 62.6215 38.6971 62.7743 37.9291C63.0671 36.4596 63.465 34.4538 63.8725 32.3973C64.1017 31.2373 64.334 30.0614 64.5537 28.9554C65.1744 25.8134 65.6805 23.2443 65.6805 23.2443L56.9808 23.4617Z" fill="#AD5A3B"/>
<path d="M56.8409 24.2345C56.9316 23.7473 56.9809 23.4617 56.9809 23.4617L65.6807 23.2443C65.6807 23.2443 65.1745 25.8134 64.5538 28.9554C64.3357 30.0551 64.105 31.2246 63.8774 32.3782C62.534 32.1799 61.1302 31.5277 59.7233 30.2978C58.189 28.9554 57.1831 27.3431 56.5767 25.6214C56.6833 25.0707 56.774 24.5979 56.8409 24.2345Z" fill="#8C4326"/>
<path d="M66.048 5.38417C66.048 5.38417 62.0562 4.33526 59.0386 7.25984C56.0209 10.1844 51.8174 19.9626 57.3419 26.3958C62.868 32.8289 70.0127 27.4621 71.8924 20.9592C73.7752 14.4547 75.2904 6.46006 66.048 5.38417Z" fill="#AD5A3B"/>
<path d="M73.7786 21.1274C72.8141 22.4857 71.4309 23.1157 70.6893 22.5349C69.9476 21.9557 70.1306 20.3847 71.0951 19.0264C72.0596 17.668 73.4427 17.038 74.1844 17.6172C74.9261 18.198 74.7447 19.769 73.7786 21.1274Z" fill="#AD5A3B"/>
<path d="M66.6595 4.36223C66.6595 4.36223 59.8458 13.2582 55.9018 13.1503C51.9578 13.0423 50.71 18.1092 50.71 18.1092C50.71 18.1092 53.7993 6.4664 57.9677 4.73196C62.1377 2.99594 66.6595 4.36223 66.6595 4.36223Z" fill="#133742"/>
<path d="M115.202 56.7619H83.917C83.1259 56.7619 82.2808 57.4014 82.0293 58.1901L68.8381 99.6404C68.5866 100.429 69.0243 101.069 69.8169 101.069H101.102C101.893 101.069 102.738 100.429 102.989 99.6404L116.182 58.1901C116.43 57.4014 115.993 56.7619 115.202 56.7619Z" fill="#14424D"/>
<path d="M56.5701 15.7257C56.6385 17.4887 55.7775 18.9724 54.6474 19.0407C53.5174 19.1089 52.5449 17.7363 52.4765 15.9733C52.408 14.2103 53.2691 12.7266 54.3991 12.6583C55.5292 12.5901 56.5016 13.9627 56.5701 15.7257Z" fill="#AD5A3B"/>
<path d="M81.1557 87.0661C80.9504 86.8773 80.987 86.7535 80.987 86.7535C81.3101 86.406 81.353 85.0239 80.9201 84.6859C80.4856 84.3479 78.1444 83.9623 77.939 83.8099C77.7337 83.6576 77.3852 83.3354 77.0461 83.2751C76.7087 83.2148 74.342 81.985 73.8645 81.9009C73.3855 81.8168 71.7334 82.45 70.7545 82.5674C69.7757 82.6832 68.2239 83.5671 67.7798 83.7782C67.4488 83.9353 61.0171 82.9038 59.3554 82.6579C57.5522 82.3913 56.1691 82.0755 56.1691 82.0755C56.1691 82.0755 45.6995 79.354 34.6999 77.3324L37.6746 68.446L27.3498 66.1022C26.0765 71.188 23.3374 78.9986 22.9872 81.428C22.2981 86.2061 38.7553 87.5025 53.3455 88.415C54.9499 88.5149 56.4635 88.6006 57.8466 88.6752C59.7215 88.8466 62.8347 89.3877 64.2703 89.6273C65.1632 89.8558 66.3872 90.178 66.5336 90.2764C66.7676 90.4335 68.3926 90.9238 68.5342 90.9492C68.6743 90.9746 69.2154 91.3602 69.4494 91.5173C69.6834 91.6744 72.9971 92.1457 73.5319 92.2409C74.0667 92.3361 75.2906 92.1473 75.2906 92.1473L77.5173 92.3678C79.1518 92.5297 78.7874 90.8191 78.7874 90.8191C79.5593 90.8905 79.9747 90.6382 80.137 90.2113C80.301 89.7844 80.1959 89.2655 80.2325 89.1862C80.2692 89.1053 80.5127 89.083 80.5127 89.083C81.0013 89.1481 81.4024 88.6117 81.4883 88.2563C81.5727 87.8992 81.361 87.2534 81.1557 87.0661Z" fill="#AD5A3B"/>
<path d="M26.3281 66.099C26.3281 66.099 31.2812 46.5822 35.1775 41.6391C39.0737 36.6961 48.4276 35.444 51.7684 39.8999C55.1091 44.3574 39.4891 69.1727 39.4891 69.1727L26.3281 66.099Z" fill="white"/>
<path d="M94.8992 70.0645C94.5745 71.2991 95.1316 72.5146 96.1422 72.7781C97.1529 73.0415 98.2352 72.2544 98.5599 71.0198C98.8846 69.7852 98.3275 68.5697 97.3168 68.3063C96.3062 68.0429 95.2239 68.83 94.8992 70.0645Z" fill="white"/>
<path d="M164.885 190.88C158.38 192.54 153.571 191.412 150.881 190.333C150.187 192.289 149.267 194.742 149.755 196.158C150.352 197.891 151.202 198.283 151.953 198.302C157.895 198.457 173.719 198.668 178.25 198.727C178.883 198.735 179.232 198 178.825 197.516C177.701 196.182 165.369 191.175 164.885 190.88Z" fill="#14424D"/>
<path d="M65.2476 24.6153L60.3168 22.8698C60.3168 22.8698 59.7661 24.7772 61.9116 25.6071C64.5282 26.6195 65.2476 24.6153 65.2476 24.6153Z" fill="white"/>
<path d="M106.693 92.06C107.083 91.2888 107.388 89.3036 107.598 88.6308C107.704 88.2928 107.837 87.8342 107.931 87.4073C108.052 86.8646 107.754 86.314 107.236 86.1093C106.519 85.8252 105.544 85.4237 105.205 85.4428C104.678 85.4714 103.951 86.5822 104.014 87.0328C104.014 87.0328 103.974 87.1503 103.709 87.1867C103.443 87.2217 102.921 87.6136 102.793 87.9389C102.665 88.2642 102.685 88.9053 103.105 89.1227C103.105 89.1227 103.285 89.2735 103.269 89.356C103.253 89.4385 102.887 89.7892 102.781 90.2145C102.674 90.6398 102.862 91.065 103.508 91.4316C103.508 91.4316 102.281 92.5773 103.656 93.3453L104.286 93.6976C104.941 94.0626 105.77 93.8198 106.12 93.1581C106.332 92.7566 106.546 92.3472 106.693 92.06Z" fill="#AD5A3B"/>
</g>
<defs>
<clipPath id="clip0_3928_23624">
<rect width="179" height="199" fill="white"/>
</clipPath>
</defs>
</svg>
