<svg width="45" height="45" viewBox="0 0 45 45" fill="none" xmlns="http://www.w3.org/2000/svg">
<rect width="45" height="45" rx="22.5" fill="#F8F9FE"/>
<path fill-rule="evenodd" clip-rule="evenodd" d="M23.75 16.25C23.75 15.5596 23.1903 15 22.5 15C21.8096 15 21.25 15.5596 21.25 16.25V21.25H16.25C15.5596 21.25 15 21.8096 15 22.5C15 23.1903 15.5596 23.75 16.25 23.75H21.25V28.75C21.25 29.4403 21.8096 30 22.5 30C23.1903 30 23.75 29.4403 23.75 28.75V23.75H28.75C29.4403 23.75 30 23.1903 30 22.5C30 21.8096 29.4403 21.25 28.75 21.25H23.75V16.25Z" fill="#017849"/>
</svg>
