<svg width="19" height="21" viewBox="0 0 19 21" fill="none" xmlns="http://www.w3.org/2000/svg">
<path d="M4.70833 4.75002V1.87502C4.70833 1.62085 4.8093 1.3771 4.98902 1.19738C5.16875 1.01765 5.4125 0.916687 5.66667 0.916687H17.1667C17.4208 0.916687 17.6646 1.01765 17.8443 1.19738C18.024 1.3771 18.125 1.62085 18.125 1.87502V15.2917C18.125 15.5459 18.024 15.7896 17.8443 15.9693C17.6646 16.1491 17.4208 16.25 17.1667 16.25H14.2917V19.125C14.2917 19.654 13.8604 20.0834 13.3266 20.0834H1.84004C1.71366 20.0841 1.58838 20.0599 1.47139 20.0121C1.3544 19.9643 1.24802 19.8938 1.15834 19.8048C1.06866 19.7157 0.997468 19.6098 0.948844 19.4932C0.900219 19.3765 0.875124 19.2514 0.875 19.125L0.877875 5.70835C0.877875 5.17935 1.30913 4.75002 1.84292 4.75002H4.70833ZM6.625 4.75002H14.2917V14.3334H16.2083V2.83335H6.625V4.75002ZM4.70833 9.54169V11.4584H10.4583V9.54169H4.70833ZM4.70833 13.375V15.2917H10.4583V13.375H4.70833Z" fill="white"/>
</svg>
