<svg width="125" height="125" viewBox="0 0 125 125" fill="none" xmlns="http://www.w3.org/2000/svg">
<circle cx="62.0049" cy="52.0049" r="47.0049" stroke="#EB5757" stroke-width="10"/>
<path d="M109.01 52.0049C109.01 60.4543 106.732 68.7474 102.417 76.0117L62.0049 52.0049H109.01Z" stroke="#00995D" stroke-width="10"/>
<g filter="url(#filter0_d_1393_12185)">
<circle cx="62.2757" cy="52.3047" r="42.2718" fill="white"/>
</g>
<path d="M44.1714 46.7474V47.6434H46.4814V56.5474H47.4894V46.7474H44.1714ZM53.738 56.6314C56.006 56.6314 57.658 54.7694 57.658 51.6474C57.658 48.5254 56.006 46.6634 53.738 46.6634C51.47 46.6634 49.832 48.5254 49.832 51.6474C49.832 54.7694 51.47 56.6314 53.738 56.6314ZM53.738 55.7074C52.03 55.7074 50.854 54.2654 50.854 51.6474C50.854 49.0294 52.03 47.5874 53.738 47.5874C55.446 47.5874 56.622 49.0294 56.622 51.6474C56.622 54.2654 55.446 55.7074 53.738 55.7074ZM57.7501 57.9474H58.6601L63.2801 44.7594H62.3701L57.7501 57.9474ZM64.8196 55.6514L68.1516 52.3754C69.4676 51.0874 69.7616 50.2474 69.7616 49.3094C69.7616 47.6714 68.5016 46.6634 66.5136 46.6634C65.0156 46.6634 63.7976 47.1674 63.0416 48.0634L63.7556 48.6794C64.3996 47.9374 65.2816 47.5874 66.4296 47.5874C67.9276 47.5874 68.7256 48.2874 68.7256 49.4214C68.7256 50.0934 68.5156 50.7514 67.4096 51.8434L63.3356 55.8334V56.5474H70.2096V55.6514H64.8196ZM75.3259 56.6314C77.5939 56.6314 79.2459 54.7694 79.2459 51.6474C79.2459 48.5254 77.5939 46.6634 75.3259 46.6634C73.0579 46.6634 71.4199 48.5254 71.4199 51.6474C71.4199 54.7694 73.0579 56.6314 75.3259 56.6314ZM75.3259 55.7074C73.6179 55.7074 72.4419 54.2654 72.4419 51.6474C72.4419 49.0294 73.6179 47.5874 75.3259 47.5874C77.0339 47.5874 78.2099 49.0294 78.2099 51.6474C78.2099 54.2654 77.0339 55.7074 75.3259 55.7074Z" fill="#4F4F4F"/>
<defs>
<filter id="filter0_d_1393_12185" x="0.00390625" y="0.032959" width="124.543" height="124.544" filterUnits="userSpaceOnUse" color-interpolation-filters="sRGB">
<feFlood flood-opacity="0" result="BackgroundImageFix"/>
<feColorMatrix in="SourceAlpha" type="matrix" values="0 0 0 0 0 0 0 0 0 0 0 0 0 0 0 0 0 0 127 0" result="hardAlpha"/>
<feOffset dy="10"/>
<feGaussianBlur stdDeviation="10"/>
<feColorMatrix type="matrix" values="0 0 0 0 0 0 0 0 0 0 0 0 0 0 0 0 0 0 0.05 0"/>
<feBlend mode="normal" in2="BackgroundImageFix" result="effect1_dropShadow_1393_12185"/>
<feBlend mode="normal" in="SourceGraphic" in2="effect1_dropShadow_1393_12185" result="shape"/>
</filter>
</defs>
</svg>
