<svg width="44" height="44" viewBox="0 0 44 44" fill="none" xmlns="http://www.w3.org/2000/svg">
<rect width="44" height="44" rx="22" fill="#F8F9FE"/>
<g clip-path="url(#clip0_1412_9588)">
<path d="M31 25L25 30.996L14.002 31C13.7375 31.0011 13.4834 30.8971 13.2955 30.7109C13.1076 30.5247 13.0013 30.2715 13 30.007V13.993C13 13.445 13.445 13 13.993 13H30.007C30.555 13 31 13.456 31 14.002V25ZM29 15H15V29H23V24C23 23.7551 23.09 23.5187 23.2527 23.3356C23.4155 23.1526 23.6397 23.0357 23.883 23.007L24 23L29 22.999V15ZM28.171 24.999L25 25V28.169L28.171 24.999Z" fill="#017849"/>
</g>
<defs>
<clipPath id="clip0_1412_9588">
<rect width="24" height="24" fill="white" transform="translate(10 10)"/>
</clipPath>
</defs>
</svg>
