<svg width="100" height="93" viewBox="0 0 100 93" fill="none" xmlns="http://www.w3.org/2000/svg">
<path d="M28.1063 14.16C27.2423 14.16 26.4316 14 25.6743 13.68C24.9276 13.3493 24.2716 12.896 23.7063 12.32C23.1516 11.7333 22.7143 11.0507 22.3943 10.272C22.0849 9.49333 21.9303 8.65067 21.9303 7.744C21.9303 6.848 22.0849 6.016 22.3943 5.248C22.7143 4.46933 23.1516 3.792 23.7063 3.216C24.2716 2.62933 24.9276 2.17067 25.6743 1.84C26.4209 1.50933 27.2316 1.344 28.1063 1.344C28.9276 1.344 29.6316 1.45067 30.2183 1.664C30.8156 1.87733 31.4129 2.22933 32.0103 2.72C32.0956 2.784 32.1596 2.85333 32.2023 2.928C32.2556 2.992 32.2876 3.06133 32.2983 3.136C32.3196 3.2 32.3303 3.28 32.3303 3.376C32.3303 3.57867 32.2556 3.74933 32.1063 3.888C31.9676 4.016 31.7969 4.09067 31.5943 4.112C31.3916 4.12267 31.1943 4.05333 31.0023 3.904C30.6076 3.56267 30.1969 3.30133 29.7703 3.12C29.3543 2.93867 28.7996 2.848 28.1063 2.848C27.4769 2.848 26.8849 2.976 26.3303 3.232C25.7756 3.488 25.2849 3.84 24.8583 4.288C24.4423 4.736 24.1169 5.25867 23.8823 5.856C23.6476 6.44267 23.5303 7.072 23.5303 7.744C23.5303 8.42667 23.6476 9.06667 23.8823 9.664C24.1169 10.2507 24.4423 10.768 24.8583 11.216C25.2849 11.664 25.7756 12.016 26.3303 12.272C26.8849 12.5173 27.4769 12.64 28.1063 12.64C28.6503 12.64 29.1623 12.5493 29.6423 12.368C30.1329 12.176 30.6023 11.9147 31.0503 11.584C31.2423 11.4453 31.4289 11.3867 31.6103 11.408C31.8023 11.4187 31.9623 11.4933 32.0903 11.632C32.2183 11.76 32.2823 11.9413 32.2823 12.176C32.2823 12.2827 32.2609 12.3893 32.2183 12.496C32.1756 12.592 32.1116 12.6827 32.0263 12.768C31.4503 13.2267 30.8316 13.5733 30.1703 13.808C29.5196 14.0427 28.8316 14.16 28.1063 14.16ZM38.1111 14.064C37.2471 14.064 36.4845 13.8773 35.8231 13.504C35.1618 13.12 34.6391 12.5973 34.2551 11.936C33.8818 11.264 33.6951 10.496 33.6951 9.632C33.6951 8.75733 33.8818 7.98933 34.2551 7.328C34.6391 6.656 35.1618 6.13333 35.8231 5.76C36.4845 5.376 37.2471 5.184 38.1111 5.184C38.9645 5.184 39.7218 5.376 40.3831 5.76C41.0445 6.13333 41.5618 6.656 41.9351 7.328C42.3191 7.98933 42.5111 8.75733 42.5111 9.632C42.5111 10.496 42.3245 11.264 41.9511 11.936C41.5778 12.5973 41.0605 13.12 40.3991 13.504C39.7378 13.8773 38.9751 14.064 38.1111 14.064ZM38.1111 12.624C38.6658 12.624 39.1565 12.496 39.5831 12.24C40.0098 11.984 40.3405 11.632 40.5751 11.184C40.8205 10.736 40.9431 10.2187 40.9431 9.632C40.9431 9.04533 40.8205 8.528 40.5751 8.08C40.3405 7.62133 40.0098 7.264 39.5831 7.008C39.1565 6.752 38.6658 6.624 38.1111 6.624C37.5565 6.624 37.0658 6.752 36.6391 7.008C36.2125 7.264 35.8765 7.62133 35.6311 8.08C35.3858 8.528 35.2631 9.04533 35.2631 9.632C35.2631 10.2187 35.3858 10.736 35.6311 11.184C35.8765 11.632 36.2125 11.984 36.6391 12.24C37.0658 12.496 37.5565 12.624 38.1111 12.624ZM52.332 14.016C52.0973 14.016 51.9 13.9413 51.74 13.792C51.5907 13.632 51.516 13.4347 51.516 13.2V9.264C51.516 8.656 51.404 8.16 51.18 7.776C50.956 7.392 50.652 7.10933 50.268 6.928C49.8947 6.736 49.4627 6.64 48.972 6.64C48.524 6.64 48.1187 6.73067 47.756 6.912C47.3933 7.09333 47.1053 7.33867 46.892 7.648C46.6787 7.94667 46.572 8.29333 46.572 8.688H45.564C45.564 8.016 45.724 7.41867 46.044 6.896C46.3747 6.36267 46.8227 5.94133 47.388 5.632C47.9533 5.32267 48.588 5.168 49.292 5.168C50.028 5.168 50.684 5.328 51.26 5.648C51.8467 5.95733 52.3053 6.416 52.636 7.024C52.9773 7.632 53.148 8.37867 53.148 9.264V13.2C53.148 13.4347 53.068 13.632 52.908 13.792C52.7587 13.9413 52.5667 14.016 52.332 14.016ZM45.756 14.016C45.5213 14.016 45.324 13.9413 45.164 13.792C45.0147 13.632 44.94 13.4347 44.94 13.2V6.064C44.94 5.81867 45.0147 5.62133 45.164 5.472C45.324 5.32267 45.5213 5.248 45.756 5.248C46.0013 5.248 46.1987 5.32267 46.348 5.472C46.4973 5.62133 46.572 5.81867 46.572 6.064V13.2C46.572 13.4347 46.4973 13.632 46.348 13.792C46.1987 13.9413 46.0013 14.016 45.756 14.016ZM59.0303 14.064C58.2836 14.064 57.5903 13.952 56.9503 13.728C56.3209 13.4933 55.8303 13.2 55.4783 12.848C55.3183 12.6773 55.2489 12.4853 55.2703 12.272C55.3023 12.048 55.4089 11.8667 55.5903 11.728C55.8036 11.5573 56.0116 11.488 56.2143 11.52C56.4276 11.5413 56.6089 11.632 56.7582 11.792C56.9396 11.9947 57.2276 12.1867 57.6223 12.368C58.0276 12.5387 58.4756 12.624 58.9663 12.624C59.5849 12.624 60.0543 12.5227 60.3743 12.32C60.7049 12.1173 60.8756 11.856 60.8863 11.536C60.8969 11.216 60.7423 10.9387 60.4223 10.704C60.1129 10.4693 59.5423 10.2773 58.7103 10.128C57.6329 9.91467 56.8489 9.59467 56.3583 9.168C55.8783 8.74133 55.6383 8.21867 55.6383 7.6C55.6383 7.056 55.7983 6.608 56.1183 6.256C56.4383 5.89333 56.8489 5.62667 57.3503 5.456C57.8516 5.27467 58.3743 5.184 58.9183 5.184C59.6223 5.184 60.2463 5.296 60.7903 5.52C61.3343 5.744 61.7663 6.05333 62.0863 6.448C62.2356 6.61867 62.3049 6.8 62.2943 6.992C62.2836 7.17333 62.1929 7.328 62.0223 7.456C61.8516 7.57333 61.6489 7.61067 61.4143 7.568C61.1796 7.52533 60.9823 7.42933 60.8223 7.28C60.5556 7.024 60.2676 6.848 59.9583 6.752C59.6489 6.656 59.2916 6.608 58.8863 6.608C58.4169 6.608 58.0169 6.688 57.6863 6.848C57.3663 7.008 57.2063 7.24267 57.2063 7.552C57.2063 7.744 57.2543 7.92 57.3503 8.08C57.4569 8.22933 57.6596 8.368 57.9583 8.496C58.2569 8.61333 58.6943 8.73067 59.2703 8.848C60.0703 9.008 60.6996 9.21067 61.1583 9.456C61.6276 9.70133 61.9636 9.98933 62.1663 10.32C62.3689 10.64 62.4703 11.0133 62.4703 11.44C62.4703 11.9307 62.3369 12.3733 62.0703 12.768C61.8143 13.1627 61.4303 13.4773 60.9183 13.712C60.4169 13.9467 59.7876 14.064 59.0303 14.064ZM68.2138 14.08C67.4778 14.08 66.8164 13.9253 66.2298 13.616C65.6538 13.296 65.1951 12.832 64.8538 12.224C64.5231 11.616 64.3578 10.8693 64.3578 9.984V6.048C64.3578 5.81333 64.4324 5.62133 64.5818 5.472C64.7418 5.312 64.9391 5.232 65.1738 5.232C65.4084 5.232 65.6004 5.312 65.7498 5.472C65.9098 5.62133 65.9898 5.81333 65.9898 6.048V9.984C65.9898 10.5813 66.1018 11.0773 66.3258 11.472C66.5498 11.856 66.8538 12.144 67.2378 12.336C67.6218 12.5173 68.0538 12.608 68.5338 12.608C68.9924 12.608 69.3978 12.5173 69.7498 12.336C70.1124 12.1547 70.4004 11.9093 70.6138 11.6C70.8271 11.2907 70.9338 10.944 70.9338 10.56H71.9418C71.9418 11.2213 71.7764 11.8187 71.4458 12.352C71.1258 12.8853 70.6831 13.3067 70.1178 13.616C69.5631 13.9253 68.9284 14.08 68.2138 14.08ZM71.7498 14C71.5151 14 71.3178 13.9253 71.1578 13.776C71.0084 13.616 70.9338 13.4187 70.9338 13.184V6.048C70.9338 5.80267 71.0084 5.60533 71.1578 5.456C71.3178 5.30667 71.5151 5.232 71.7498 5.232C71.9951 5.232 72.1924 5.30667 72.3418 5.456C72.4911 5.60533 72.5658 5.80267 72.5658 6.048V13.184C72.5658 13.4187 72.4911 13.616 72.3418 13.776C72.1924 13.9253 71.9951 14 71.7498 14ZM86.928 14.016C86.6933 14.016 86.496 13.9413 86.336 13.792C86.1867 13.632 86.112 13.4347 86.112 13.2V8.624C86.112 7.952 85.9467 7.456 85.616 7.136C85.2853 6.80533 84.8533 6.64 84.32 6.64C83.7653 6.64 83.3067 6.832 82.944 7.216C82.592 7.6 82.416 8.09067 82.416 8.688H81.088C81.088 7.99467 81.2373 7.38667 81.536 6.864C81.8347 6.33067 82.2507 5.91467 82.784 5.616C83.328 5.31733 83.9467 5.168 84.64 5.168C85.248 5.168 85.7867 5.30133 86.256 5.568C86.7253 5.83467 87.088 6.22933 87.344 6.752C87.6107 7.264 87.744 7.888 87.744 8.624V13.2C87.744 13.4347 87.6693 13.632 87.52 13.792C87.3707 13.9413 87.1733 14.016 86.928 14.016ZM76.256 14.016C76.0213 14.016 75.824 13.9413 75.664 13.792C75.5147 13.632 75.44 13.4347 75.44 13.2V6.08C75.44 5.83467 75.5147 5.63733 75.664 5.488C75.824 5.33867 76.0213 5.264 76.256 5.264C76.5013 5.264 76.6987 5.33867 76.848 5.488C76.9973 5.63733 77.072 5.83467 77.072 6.08V13.2C77.072 13.4347 76.9973 13.632 76.848 13.792C76.6987 13.9413 76.5013 14.016 76.256 14.016ZM81.6 14.016C81.3653 14.016 81.168 13.9413 81.008 13.792C80.8587 13.632 80.784 13.4347 80.784 13.2V8.624C80.784 7.952 80.6187 7.456 80.288 7.136C79.9573 6.80533 79.5253 6.64 78.992 6.64C78.4373 6.64 77.9787 6.832 77.616 7.216C77.2533 7.6 77.072 8.09067 77.072 8.688H76.064C76.064 7.99467 76.2027 7.38667 76.48 6.864C76.7573 6.33067 77.1413 5.91467 77.632 5.616C78.1227 5.31733 78.6827 5.168 79.312 5.168C79.92 5.168 80.4587 5.30133 80.928 5.568C81.3973 5.83467 81.76 6.22933 82.016 6.752C82.2827 7.264 82.416 7.888 82.416 8.624V13.2C82.416 13.4347 82.3413 13.632 82.192 13.792C82.0427 13.9413 81.8453 14.016 81.6 14.016ZM94.4236 14.064C93.5596 14.064 92.797 13.8773 92.1356 13.504C91.4743 13.12 90.9516 12.5973 90.5676 11.936C90.1943 11.264 90.0076 10.496 90.0076 9.632C90.0076 8.75733 90.1943 7.98933 90.5676 7.328C90.9516 6.656 91.4743 6.13333 92.1356 5.76C92.797 5.376 93.5596 5.184 94.4236 5.184C95.277 5.184 96.0343 5.376 96.6956 5.76C97.357 6.13333 97.8743 6.656 98.2476 7.328C98.6316 7.98933 98.8236 8.75733 98.8236 9.632C98.8236 10.496 98.637 11.264 98.2636 11.936C97.8903 12.5973 97.373 13.12 96.7116 13.504C96.0503 13.8773 95.2876 14.064 94.4236 14.064ZM94.4236 12.624C94.9783 12.624 95.469 12.496 95.8956 12.24C96.3223 11.984 96.653 11.632 96.8876 11.184C97.133 10.736 97.2556 10.2187 97.2556 9.632C97.2556 9.04533 97.133 8.528 96.8876 8.08C96.653 7.62133 96.3223 7.264 95.8956 7.008C95.469 6.752 94.9783 6.624 94.4236 6.624C93.869 6.624 93.3783 6.752 92.9516 7.008C92.525 7.264 92.189 7.62133 91.9436 8.08C91.6983 8.528 91.5756 9.04533 91.5756 9.632C91.5756 10.2187 91.6983 10.736 91.9436 11.184C92.189 11.632 92.525 11.984 92.9516 12.24C93.3783 12.496 93.869 12.624 94.4236 12.624Z" fill="#4F4F4F"/>
<path d="M22.0088 25.5V24.252H24.5048V33H23.1248V25.5H22.0088ZM26.3841 28.512C26.3841 27.128 26.6161 26.048 27.0801 25.272C27.5521 24.488 28.3601 24.096 29.5041 24.096C30.6481 24.096 31.4521 24.488 31.9161 25.272C32.3881 26.048 32.6241 27.128 32.6241 28.512C32.6241 29.912 32.3881 31.008 31.9161 31.8C31.4521 32.584 30.6481 32.976 29.5041 32.976C28.3601 32.976 27.5521 32.584 27.0801 31.8C26.6161 31.008 26.3841 29.912 26.3841 28.512ZM31.2801 28.512C31.2801 27.864 31.2361 27.316 31.1481 26.868C31.0681 26.42 30.9001 26.056 30.6441 25.776C30.3881 25.488 30.0081 25.344 29.5041 25.344C29.0001 25.344 28.6201 25.488 28.3641 25.776C28.1081 26.056 27.9361 26.42 27.8481 26.868C27.7681 27.316 27.7281 27.864 27.7281 28.512C27.7281 29.184 27.7681 29.748 27.8481 30.204C27.9281 30.66 28.0961 31.028 28.3521 31.308C28.6161 31.588 29.0001 31.728 29.5041 31.728C30.0081 31.728 30.3881 31.588 30.6441 31.308C30.9081 31.028 31.0801 30.66 31.1601 30.204C31.2401 29.748 31.2801 29.184 31.2801 28.512Z" fill="#22215B" fill-opacity="0.6"/>
<circle cx="5" cy="9" r="5" fill="#EB5757"/>
<path d="M21.9379 70C21.7032 70 21.5059 69.92 21.3459 69.76C21.1859 69.6 21.1059 69.4027 21.1059 69.168V58.336C21.1059 58.0907 21.1859 57.8933 21.3459 57.744C21.5059 57.584 21.7032 57.504 21.9379 57.504H24.8179C25.6179 57.504 26.3272 57.6747 26.9459 58.016C27.5645 58.3467 28.0445 58.8053 28.3859 59.392C28.7379 59.9787 28.9139 60.6613 28.9139 61.44C28.9139 62.1653 28.7379 62.8107 28.3859 63.376C28.0445 63.9413 27.5645 64.384 26.9459 64.704C26.3272 65.024 25.6179 65.184 24.8179 65.184H22.7699V69.168C22.7699 69.4027 22.6899 69.6 22.5299 69.76C22.3805 69.92 22.1832 70 21.9379 70ZM28.5779 70C28.4285 70 28.2899 69.968 28.1619 69.904C28.0445 69.84 27.9432 69.7387 27.8579 69.6L24.9779 64.96L26.5939 64.496L29.2179 68.72C29.4099 69.0293 29.4365 69.3227 29.2979 69.6C29.1592 69.8667 28.9192 70 28.5779 70ZM22.7699 63.648H24.8179C25.3085 63.648 25.7405 63.5573 26.1139 63.376C26.4872 63.184 26.7805 62.9227 26.9939 62.592C27.2072 62.2507 27.3139 61.8667 27.3139 61.44C27.3139 60.9707 27.2072 60.5547 26.9939 60.192C26.7805 59.8293 26.4872 59.5467 26.1139 59.344C25.7405 59.1413 25.3085 59.04 24.8179 59.04H22.7699V63.648ZM35.1672 70.064C34.2819 70.064 33.4926 69.8773 32.7992 69.504C32.1166 69.12 31.5779 68.5973 31.1832 67.936C30.7992 67.264 30.6072 66.496 30.6072 65.632C30.6072 64.7573 30.7886 63.9893 31.1512 63.328C31.5246 62.656 32.0366 62.1333 32.6872 61.76C33.3379 61.376 34.0846 61.184 34.9272 61.184C35.7592 61.184 36.4739 61.3707 37.0712 61.744C37.6686 62.1067 38.1219 62.6133 38.4312 63.264C38.7512 63.904 38.9112 64.6453 38.9112 65.488C38.9112 65.6907 38.8419 65.8613 38.7032 66C38.5646 66.128 38.3886 66.192 38.1752 66.192H31.7272V64.912H38.1272L37.4712 65.36C37.4606 64.8267 37.3539 64.352 37.1512 63.936C36.9486 63.5093 36.6606 63.1733 36.2872 62.928C35.9139 62.6827 35.4606 62.56 34.9272 62.56C34.3192 62.56 33.7966 62.6933 33.3592 62.96C32.9326 63.2267 32.6072 63.5947 32.3832 64.064C32.1592 64.5227 32.0472 65.0453 32.0472 65.632C32.0472 66.2187 32.1806 66.7413 32.4472 67.2C32.7139 67.6587 33.0819 68.0213 33.5512 68.288C34.0206 68.5547 34.5592 68.688 35.1672 68.688C35.4979 68.688 35.8339 68.6293 36.1752 68.512C36.5272 68.384 36.8099 68.24 37.0232 68.08C37.1832 67.9627 37.3539 67.904 37.5352 67.904C37.7272 67.8933 37.8926 67.9467 38.0312 68.064C38.2126 68.224 38.3086 68.4 38.3192 68.592C38.3299 68.784 38.2446 68.9493 38.0632 69.088C37.7006 69.376 37.2472 69.6107 36.7032 69.792C36.1699 69.9733 35.6579 70.064 35.1672 70.064ZM44.1767 70.064C43.4301 70.064 42.7367 69.952 42.0967 69.728C41.4674 69.4933 40.9767 69.2 40.6247 68.848C40.4647 68.6773 40.3954 68.4853 40.4167 68.272C40.4487 68.048 40.5554 67.8667 40.7367 67.728C40.9501 67.5573 41.1581 67.488 41.3607 67.52C41.5741 67.5413 41.7554 67.632 41.9047 67.792C42.0861 67.9947 42.3741 68.1867 42.7687 68.368C43.1741 68.5387 43.6221 68.624 44.1127 68.624C44.7314 68.624 45.2007 68.5227 45.5207 68.32C45.8514 68.1173 46.0221 67.856 46.0327 67.536C46.0434 67.216 45.8887 66.9387 45.5687 66.704C45.2594 66.4693 44.6887 66.2773 43.8567 66.128C42.7794 65.9147 41.9954 65.5947 41.5047 65.168C41.0247 64.7413 40.7847 64.2187 40.7847 63.6C40.7847 63.056 40.9447 62.608 41.2647 62.256C41.5847 61.8933 41.9954 61.6267 42.4967 61.456C42.9981 61.2747 43.5207 61.184 44.0647 61.184C44.7687 61.184 45.3927 61.296 45.9367 61.52C46.4807 61.744 46.9127 62.0533 47.2327 62.448C47.3821 62.6187 47.4514 62.8 47.4407 62.992C47.4301 63.1733 47.3394 63.328 47.1687 63.456C46.9981 63.5733 46.7954 63.6107 46.5607 63.568C46.3261 63.5253 46.1287 63.4293 45.9687 63.28C45.7021 63.024 45.4141 62.848 45.1047 62.752C44.7954 62.656 44.4381 62.608 44.0327 62.608C43.5634 62.608 43.1634 62.688 42.8327 62.848C42.5127 63.008 42.3527 63.2427 42.3527 63.552C42.3527 63.744 42.4007 63.92 42.4967 64.08C42.6034 64.2293 42.8061 64.368 43.1047 64.496C43.4034 64.6133 43.8407 64.7307 44.4167 64.848C45.2167 65.008 45.8461 65.2107 46.3047 65.456C46.7741 65.7013 47.1101 65.9893 47.3127 66.32C47.5154 66.64 47.6167 67.0133 47.6167 67.44C47.6167 67.9307 47.4834 68.3733 47.2167 68.768C46.9607 69.1627 46.5767 69.4773 46.0647 69.712C45.5634 69.9467 44.9341 70.064 44.1767 70.064ZM52.8642 70C52.3309 70 51.8509 69.8667 51.4242 69.6C50.9976 69.3227 50.6616 68.9493 50.4162 68.48C50.1709 68.0107 50.0482 67.4827 50.0482 66.896V59.264C50.0482 59.0293 50.1229 58.8373 50.2722 58.688C50.4216 58.5387 50.6136 58.464 50.8482 58.464C51.0829 58.464 51.2749 58.5387 51.4242 58.688C51.5736 58.8373 51.6482 59.0293 51.6482 59.264V66.896C51.6482 67.3227 51.7656 67.68 52.0002 67.968C52.2349 68.256 52.5229 68.4 52.8642 68.4H53.4082C53.6002 68.4 53.7602 68.4747 53.8882 68.624C54.0269 68.7733 54.0962 68.9653 54.0962 69.2C54.0962 69.4347 54.0056 69.6267 53.8242 69.776C53.6536 69.9253 53.4296 70 53.1522 70H52.8642ZM49.3122 62.944C49.0882 62.944 48.9069 62.88 48.7682 62.752C48.6296 62.624 48.5602 62.464 48.5602 62.272C48.5602 62.0587 48.6296 61.888 48.7682 61.76C48.9069 61.632 49.0882 61.568 49.3122 61.568H53.0082C53.2322 61.568 53.4136 61.632 53.5522 61.76C53.6909 61.888 53.7602 62.0587 53.7602 62.272C53.7602 62.464 53.6909 62.624 53.5522 62.752C53.4136 62.88 53.2322 62.944 53.0082 62.944H49.3122ZM59.7501 70.064C58.9714 70.064 58.2728 69.872 57.6541 69.488C57.0354 69.0933 56.5448 68.5653 56.1821 67.904C55.8301 67.232 55.6541 66.4747 55.6541 65.632C55.6541 64.7893 55.8461 64.032 56.2301 63.36C56.6248 62.688 57.1528 62.16 57.8141 61.776C58.4861 61.3813 59.2381 61.184 60.0701 61.184C60.9021 61.184 61.6488 61.3813 62.3101 61.776C62.9714 62.16 63.4941 62.688 63.8781 63.36C64.2728 64.032 64.4701 64.7893 64.4701 65.632H63.8461C63.8461 66.4747 63.6648 67.232 63.3021 67.904C62.9501 68.5653 62.4648 69.0933 61.8461 69.488C61.2274 69.872 60.5288 70.064 59.7501 70.064ZM60.0701 68.624C60.6141 68.624 61.0994 68.496 61.5261 68.24C61.9528 67.9733 62.2888 67.616 62.5341 67.168C62.7794 66.7093 62.9021 66.1973 62.9021 65.632C62.9021 65.056 62.7794 64.544 62.5341 64.096C62.2888 63.6373 61.9528 63.28 61.5261 63.024C61.0994 62.7573 60.6141 62.624 60.0701 62.624C59.5368 62.624 59.0514 62.7573 58.6141 63.024C58.1874 63.28 57.8461 63.6373 57.5901 64.096C57.3448 64.544 57.2221 65.056 57.2221 65.632C57.2221 66.1973 57.3448 66.7093 57.5901 67.168C57.8461 67.616 58.1874 67.9733 58.6141 68.24C59.0514 68.496 59.5368 68.624 60.0701 68.624ZM63.6541 70.016C63.4194 70.016 63.2221 69.9413 63.0621 69.792C62.9128 69.632 62.8381 69.4347 62.8381 69.2V66.752L63.1421 65.056L64.4701 65.632V69.2C64.4701 69.4347 64.3901 69.632 64.2301 69.792C64.0808 69.9413 63.8888 70.016 63.6541 70.016ZM78.387 70.016C78.1523 70.016 77.955 69.9413 77.795 69.792C77.6457 69.632 77.571 69.4347 77.571 69.2V64.624C77.571 63.952 77.4057 63.456 77.075 63.136C76.7443 62.8053 76.3123 62.64 75.779 62.64C75.2243 62.64 74.7657 62.832 74.403 63.216C74.051 63.6 73.875 64.0907 73.875 64.688H72.547C72.547 63.9947 72.6963 63.3867 72.995 62.864C73.2937 62.3307 73.7097 61.9147 74.243 61.616C74.787 61.3173 75.4057 61.168 76.099 61.168C76.707 61.168 77.2457 61.3013 77.715 61.568C78.1843 61.8347 78.547 62.2293 78.803 62.752C79.0697 63.264 79.203 63.888 79.203 64.624V69.2C79.203 69.4347 79.1283 69.632 78.979 69.792C78.8297 69.9413 78.6323 70.016 78.387 70.016ZM67.715 70.016C67.4803 70.016 67.283 69.9413 67.123 69.792C66.9737 69.632 66.899 69.4347 66.899 69.2V62.08C66.899 61.8347 66.9737 61.6373 67.123 61.488C67.283 61.3387 67.4803 61.264 67.715 61.264C67.9603 61.264 68.1577 61.3387 68.307 61.488C68.4563 61.6373 68.531 61.8347 68.531 62.08V69.2C68.531 69.4347 68.4563 69.632 68.307 69.792C68.1577 69.9413 67.9603 70.016 67.715 70.016ZM73.059 70.016C72.8243 70.016 72.627 69.9413 72.467 69.792C72.3177 69.632 72.243 69.4347 72.243 69.2V64.624C72.243 63.952 72.0777 63.456 71.747 63.136C71.4163 62.8053 70.9843 62.64 70.451 62.64C69.8963 62.64 69.4377 62.832 69.075 63.216C68.7123 63.6 68.531 64.0907 68.531 64.688H67.523C67.523 63.9947 67.6617 63.3867 67.939 62.864C68.2163 62.3307 68.6003 61.9147 69.091 61.616C69.5817 61.3173 70.1417 61.168 70.771 61.168C71.379 61.168 71.9177 61.3013 72.387 61.568C72.8563 61.8347 73.219 62.2293 73.475 62.752C73.7417 63.264 73.875 63.888 73.875 64.624V69.2C73.875 69.4347 73.8003 69.632 73.651 69.792C73.5017 69.9413 73.3043 70.016 73.059 70.016Z" fill="#4F4F4F"/>
<path d="M20.0459 79.5V78.252H22.5419V87H21.1619V79.5H20.0459ZM24.4212 82.512C24.4212 81.128 24.6532 80.048 25.1172 79.272C25.5892 78.488 26.3972 78.096 27.5412 78.096C28.6852 78.096 29.4892 78.488 29.9532 79.272C30.4252 80.048 30.6612 81.128 30.6612 82.512C30.6612 83.912 30.4252 85.008 29.9532 85.8C29.4892 86.584 28.6852 86.976 27.5412 86.976C26.3972 86.976 25.5892 86.584 25.1172 85.8C24.6532 85.008 24.4212 83.912 24.4212 82.512ZM29.3172 82.512C29.3172 81.864 29.2732 81.316 29.1852 80.868C29.1052 80.42 28.9372 80.056 28.6812 79.776C28.4252 79.488 28.0452 79.344 27.5412 79.344C27.0372 79.344 26.6572 79.488 26.4012 79.776C26.1452 80.056 25.9732 80.42 25.8852 80.868C25.8052 81.316 25.7652 81.864 25.7652 82.512C25.7652 83.184 25.8052 83.748 25.8852 84.204C25.9652 84.66 26.1332 85.028 26.3892 85.308C26.6532 85.588 27.0372 85.728 27.5412 85.728C28.0452 85.728 28.4252 85.588 28.6812 85.308C28.9452 85.028 29.1172 84.66 29.1972 84.204C29.2772 83.748 29.3172 83.184 29.3172 82.512Z" fill="#22215B" fill-opacity="0.6"/>
<circle cx="5" cy="65" r="5" fill="#219653"/>
</svg>
