<svg width="399" height="82" viewBox="0 0 399 82" fill="none" xmlns="http://www.w3.org/2000/svg">
<rect width="399" height="82" rx="16" fill="#F2994A"/>
<path d="M73.008 27.192C76.208 27.192 77.76 25.592 77.76 23.72C77.76 19.608 71.248 21.032 71.248 18.968C71.248 18.264 71.84 17.688 73.376 17.688C74.368 17.688 75.44 17.976 76.48 18.568L77.28 16.6C76.24 15.944 74.8 15.608 73.392 15.608C70.208 15.608 68.672 17.192 68.672 19.096C68.672 23.256 75.184 21.816 75.184 23.912C75.184 24.6 74.56 25.112 73.024 25.112C71.68 25.112 70.272 24.632 69.328 23.944L68.448 25.896C69.44 26.664 71.232 27.192 73.008 27.192ZM87.7871 22.728C87.7871 19.96 85.8351 18.264 83.3071 18.264C80.6831 18.264 78.7151 20.12 78.7151 22.696C78.7151 25.256 80.6511 27.128 83.6271 27.128C85.1791 27.128 86.3791 26.648 87.1791 25.736L85.8511 24.296C85.2591 24.856 84.6031 25.128 83.6911 25.128C82.3791 25.128 81.4671 24.472 81.2271 23.4H87.7391C87.7551 23.192 87.7871 22.92 87.7871 22.728ZM83.3231 20.152C84.4431 20.152 85.2591 20.856 85.4351 21.944H81.1951C81.3711 20.84 82.1871 20.152 83.3231 20.152ZM95.6249 18.392V22.648C95.6249 24.232 94.7929 24.968 93.6409 24.968C92.5369 24.968 91.8969 24.328 91.8969 22.888V18.392H89.4009V23.256C89.4009 25.912 90.9209 27.128 93.0809 27.128C94.1369 27.128 95.0969 26.728 95.7529 25.976V27H98.1209V18.392H95.6249ZM103.329 27.128C105.905 27.128 107.393 25.992 107.393 24.392C107.393 21 102.193 22.424 102.193 20.952C102.193 20.504 102.673 20.152 103.793 20.152C104.577 20.152 105.425 20.312 106.273 20.792L107.105 19.016C106.289 18.536 104.977 18.264 103.793 18.264C101.281 18.264 99.8092 19.416 99.8092 21.048C99.8092 24.488 105.009 23.048 105.009 24.456C105.009 24.936 104.577 25.24 103.425 25.24C102.369 25.24 101.201 24.904 100.433 24.408L99.6013 26.2C100.401 26.728 101.873 27.128 103.329 27.128ZM117.625 27.128C119.433 27.128 120.857 26.328 121.481 24.952L119.545 23.896C119.081 24.728 118.393 25.08 117.609 25.08C116.345 25.08 115.353 24.2 115.353 22.696C115.353 21.192 116.345 20.312 117.609 20.312C118.393 20.312 119.081 20.68 119.545 21.496L121.481 20.456C120.857 19.048 119.433 18.264 117.625 18.264C114.825 18.264 112.825 20.104 112.825 22.696C112.825 25.288 114.825 27.128 117.625 27.128ZM125.302 19.528V18.392H122.918V27H125.414V22.936C125.414 21.288 126.326 20.536 127.702 20.536C127.894 20.536 128.054 20.552 128.262 20.568V18.264C126.934 18.264 125.91 18.696 125.302 19.528ZM136.964 14.984H134.276L132.116 17.288H134.068L136.964 14.984ZM138.1 22.728C138.1 19.96 136.148 18.264 133.62 18.264C130.996 18.264 129.028 20.12 129.028 22.696C129.028 25.256 130.964 27.128 133.94 27.128C135.492 27.128 136.692 26.648 137.492 25.736L136.164 24.296C135.572 24.856 134.916 25.128 134.004 25.128C132.692 25.128 131.78 24.472 131.54 23.4H138.052C138.068 23.192 138.1 22.92 138.1 22.728ZM133.636 20.152C134.756 20.152 135.572 20.856 135.748 21.944H131.508C131.684 20.84 132.5 20.152 133.636 20.152ZM146.033 15.128V19.304C145.409 18.6 144.513 18.264 143.457 18.264C141.025 18.264 139.153 19.992 139.153 22.696C139.153 25.4 141.025 27.128 143.457 27.128C144.609 27.128 145.521 26.76 146.145 26.008V27H148.529V15.128H146.033ZM143.889 25.08C142.641 25.08 141.681 24.184 141.681 22.696C141.681 21.208 142.641 20.312 143.889 20.312C145.121 20.312 146.081 21.208 146.081 22.696C146.081 24.184 145.121 25.08 143.889 25.08ZM152.088 17.192C153.016 17.192 153.64 16.584 153.64 15.752C153.64 14.984 153.016 14.408 152.088 14.408C151.16 14.408 150.536 15.016 150.536 15.8C150.536 16.584 151.16 17.192 152.088 17.192ZM150.84 27H153.336V18.392H150.84V27ZM160.532 24.824C160.26 25.032 159.892 25.144 159.524 25.144C158.852 25.144 158.452 24.744 158.452 24.008V20.504H160.596V18.584H158.452V16.488H155.956V18.584H154.628V20.504H155.956V24.04C155.956 26.088 157.14 27.128 159.172 27.128C159.94 27.128 160.692 26.952 161.204 26.584L160.532 24.824ZM166.436 27.128C169.172 27.128 171.156 25.288 171.156 22.696C171.156 20.104 169.172 18.264 166.436 18.264C163.7 18.264 161.7 20.104 161.7 22.696C161.7 25.288 163.7 27.128 166.436 27.128ZM166.436 25.08C165.188 25.08 164.228 24.184 164.228 22.696C164.228 21.208 165.188 20.312 166.436 20.312C167.684 20.312 168.628 21.208 168.628 22.696C168.628 24.184 167.684 25.08 166.436 25.08ZM175.72 27.128C178.296 27.128 179.784 25.992 179.784 24.392C179.784 21 174.584 22.424 174.584 20.952C174.584 20.504 175.064 20.152 176.184 20.152C176.968 20.152 177.816 20.312 178.664 20.792L179.496 19.016C178.68 18.536 177.368 18.264 176.184 18.264C173.672 18.264 172.2 19.416 172.2 21.048C172.2 24.488 177.4 23.048 177.4 24.456C177.4 24.936 176.968 25.24 175.816 25.24C174.76 25.24 173.592 24.904 172.824 24.408L171.992 26.2C172.792 26.728 174.264 27.128 175.72 27.128ZM192.367 18.392V19.496C191.711 18.664 190.719 18.264 189.519 18.264C187.135 18.264 185.215 19.912 185.215 22.424C185.215 24.936 187.135 26.584 189.519 26.584C190.639 26.584 191.583 26.232 192.239 25.512V25.88C192.239 27.432 191.471 28.232 189.711 28.232C188.607 28.232 187.407 27.848 186.671 27.256L185.679 29.048C186.687 29.832 188.271 30.232 189.903 30.232C193.007 30.232 194.735 28.76 194.735 25.56V18.392H192.367ZM190.015 24.536C188.703 24.536 187.743 23.688 187.743 22.424C187.743 21.16 188.703 20.312 190.015 20.312C191.327 20.312 192.271 21.16 192.271 22.424C192.271 23.688 191.327 24.536 190.015 24.536ZM199.442 19.528V18.392H197.058V27H199.554V22.936C199.554 21.288 200.466 20.536 201.842 20.536C202.034 20.536 202.194 20.552 202.402 20.568V18.264C201.074 18.264 200.05 18.696 199.442 19.528ZM210.96 14.984H208.272L206.112 17.288H208.064L210.96 14.984ZM207.312 18.264C205.936 18.264 204.544 18.632 203.6 19.304L204.496 21.048C205.12 20.552 206.064 20.248 206.976 20.248C208.32 20.248 208.96 20.872 208.96 21.944H206.976C204.352 21.944 203.28 23 203.28 24.52C203.28 26.008 204.48 27.128 206.496 27.128C207.76 27.128 208.656 26.712 209.12 25.928V27H211.456V22.088C211.456 19.48 209.936 18.264 207.312 18.264ZM207.12 25.448C206.24 25.448 205.712 25.032 205.712 24.408C205.712 23.832 206.08 23.4 207.248 23.4H208.96V24.28C208.672 25.064 207.952 25.448 207.12 25.448ZM218.595 24.824C218.323 25.032 217.955 25.144 217.587 25.144C216.915 25.144 216.515 24.744 216.515 24.008V20.504H218.659V18.584H216.515V16.488H214.019V18.584H212.691V20.504H214.019V24.04C214.019 26.088 215.203 27.128 217.235 27.128C218.003 27.128 218.755 26.952 219.267 26.584L218.595 24.824ZM221.916 17.192C222.844 17.192 223.468 16.584 223.468 15.752C223.468 14.984 222.844 14.408 221.916 14.408C220.988 14.408 220.364 15.016 220.364 15.8C220.364 16.584 220.988 17.192 221.916 17.192ZM220.668 27H223.164V18.392H220.668V27ZM228.376 27.128C230.952 27.128 232.44 25.992 232.44 24.392C232.44 21 227.24 22.424 227.24 20.952C227.24 20.504 227.72 20.152 228.84 20.152C229.624 20.152 230.472 20.312 231.32 20.792L232.152 19.016C231.336 18.536 230.024 18.264 228.84 18.264C226.328 18.264 224.856 19.416 224.856 21.048C224.856 24.488 230.056 23.048 230.056 24.456C230.056 24.936 229.624 25.24 228.472 25.24C227.416 25.24 226.248 24.904 225.48 24.408L224.648 26.2C225.448 26.728 226.92 27.128 228.376 27.128ZM246.943 22.728C246.943 19.96 244.991 18.264 242.463 18.264C239.839 18.264 237.871 20.12 237.871 22.696C237.871 25.256 239.807 27.128 242.783 27.128C244.335 27.128 245.535 26.648 246.335 25.736L245.007 24.296C244.415 24.856 243.759 25.128 242.847 25.128C241.535 25.128 240.623 24.472 240.383 23.4H246.895C246.911 23.192 246.943 22.92 246.943 22.728ZM242.479 20.152C243.599 20.152 244.415 20.856 244.591 21.944H240.351C240.527 20.84 241.343 20.152 242.479 20.152ZM251.501 27.128C254.077 27.128 255.565 25.992 255.565 24.392C255.565 21 250.365 22.424 250.365 20.952C250.365 20.504 250.845 20.152 251.965 20.152C252.749 20.152 253.597 20.312 254.445 20.792L255.277 19.016C254.461 18.536 253.149 18.264 251.965 18.264C249.453 18.264 247.981 19.416 247.981 21.048C247.981 24.488 253.181 23.048 253.181 24.456C253.181 24.936 252.749 25.24 251.597 25.24C250.541 25.24 249.373 24.904 248.605 24.408L247.773 26.2C248.573 26.728 250.045 27.128 251.501 27.128ZM261.985 24.824C261.713 25.032 261.345 25.144 260.977 25.144C260.305 25.144 259.905 24.744 259.905 24.008V20.504H262.049V18.584H259.905V16.488H257.409V18.584H256.081V20.504H257.409V24.04C257.409 26.088 258.593 27.128 260.625 27.128C261.393 27.128 262.145 26.952 262.657 26.584L261.985 24.824ZM266.746 16.328C267.322 16.328 267.882 17.336 268.986 17.336C270.106 17.336 270.826 16.424 270.858 15.048H269.594C269.562 15.576 269.258 15.912 268.826 15.912C268.25 15.912 267.69 14.888 266.586 14.888C265.466 14.888 264.746 15.8 264.714 17.224H265.978C266.01 16.648 266.314 16.328 266.746 16.328ZM267.53 18.264C266.154 18.264 264.762 18.632 263.818 19.304L264.714 21.048C265.338 20.552 266.282 20.248 267.194 20.248C268.538 20.248 269.178 20.872 269.178 21.944H267.194C264.57 21.944 263.498 23 263.498 24.52C263.498 26.008 264.698 27.128 266.714 27.128C267.978 27.128 268.874 26.712 269.338 25.928V27H271.674V22.088C271.674 19.48 270.154 18.264 267.53 18.264ZM267.338 25.448C266.458 25.448 265.93 25.032 265.93 24.408C265.93 23.832 266.298 23.4 267.466 23.4H269.178V24.28C268.89 25.064 268.17 25.448 267.338 25.448ZM278.123 27.128C280.859 27.128 282.843 25.288 282.843 22.696C282.843 20.104 280.859 18.264 278.123 18.264C275.387 18.264 273.387 20.104 273.387 22.696C273.387 25.288 275.387 27.128 278.123 27.128ZM278.123 25.08C276.875 25.08 275.915 24.184 275.915 22.696C275.915 21.208 276.875 20.312 278.123 20.312C279.371 20.312 280.315 21.208 280.315 22.696C280.315 24.184 279.371 25.08 278.123 25.08ZM295.395 18.392V19.384C294.771 18.632 293.859 18.264 292.707 18.264C290.275 18.264 288.403 19.992 288.403 22.696C288.403 25.4 290.275 27.128 292.707 27.128C293.763 27.128 294.659 26.792 295.283 26.088V30.104H297.779V18.392H295.395ZM293.139 25.08C291.891 25.08 290.931 24.184 290.931 22.696C290.931 21.208 291.891 20.312 293.139 20.312C294.371 20.312 295.331 21.208 295.331 22.696C295.331 24.184 294.371 25.08 293.139 25.08ZM306.266 18.392V22.648C306.266 24.232 305.434 24.968 304.282 24.968C303.178 24.968 302.538 24.328 302.538 22.888V18.392H300.042V23.256C300.042 25.912 301.562 27.128 303.722 27.128C304.778 27.128 305.738 26.728 306.394 25.976V27H308.762V18.392H306.266ZM314.546 18.264C313.17 18.264 311.778 18.632 310.834 19.304L311.73 21.048C312.354 20.552 313.298 20.248 314.21 20.248C315.554 20.248 316.194 20.872 316.194 21.944H314.21C311.586 21.944 310.514 23 310.514 24.52C310.514 26.008 311.714 27.128 313.73 27.128C314.994 27.128 315.89 26.712 316.354 25.928V27H318.69V22.088C318.69 19.48 317.17 18.264 314.546 18.264ZM314.354 25.448C313.474 25.448 312.946 25.032 312.946 24.408C312.946 23.832 313.314 23.4 314.482 23.4H316.194V24.28C315.906 25.064 315.186 25.448 314.354 25.448ZM323.845 27.128C326.421 27.128 327.909 25.992 327.909 24.392C327.909 21 322.709 22.424 322.709 20.952C322.709 20.504 323.189 20.152 324.309 20.152C325.093 20.152 325.941 20.312 326.789 20.792L327.621 19.016C326.805 18.536 325.493 18.264 324.309 18.264C321.797 18.264 320.325 19.416 320.325 21.048C320.325 24.488 325.525 23.048 325.525 24.456C325.525 24.936 325.093 25.24 323.941 25.24C322.885 25.24 321.717 24.904 320.949 24.408L320.117 26.2C320.917 26.728 322.389 27.128 323.845 27.128ZM337.881 22.728C337.881 19.96 335.929 18.264 333.401 18.264C330.777 18.264 328.809 20.12 328.809 22.696C328.809 25.256 330.745 27.128 333.721 27.128C335.273 27.128 336.473 26.648 337.273 25.736L335.945 24.296C335.353 24.856 334.697 25.128 333.785 25.128C332.473 25.128 331.561 24.472 331.321 23.4H337.833C337.849 23.192 337.881 22.92 337.881 22.728ZM333.417 20.152C334.537 20.152 335.353 20.856 335.529 21.944H331.289C331.465 20.84 332.281 20.152 333.417 20.152ZM72.624 38.264C71.248 38.264 69.856 38.632 68.912 39.304L69.808 41.048C70.432 40.552 71.376 40.248 72.288 40.248C73.632 40.248 74.272 40.872 74.272 41.944H72.288C69.664 41.944 68.592 43 68.592 44.52C68.592 46.008 69.792 47.128 71.808 47.128C73.072 47.128 73.968 46.712 74.432 45.928V47H76.768V42.088C76.768 39.48 75.248 38.264 72.624 38.264ZM72.432 45.448C71.552 45.448 71.024 45.032 71.024 44.408C71.024 43.832 71.392 43.4 72.56 43.4H74.272V44.28C73.984 45.064 73.264 45.448 72.432 45.448ZM83.2808 47.128C85.0888 47.128 86.5128 46.328 87.1368 44.952L85.2008 43.896C84.7368 44.728 84.0488 45.08 83.2648 45.08C82.0008 45.08 81.0088 44.2 81.0088 42.696C81.0088 41.192 82.0008 40.312 83.2648 40.312C84.0488 40.312 84.7368 40.68 85.2008 41.496L87.1368 40.456C86.5128 39.048 85.0888 38.264 83.2808 38.264C80.4808 38.264 78.4808 40.104 78.4808 42.696C78.4808 45.288 80.4808 47.128 83.2808 47.128ZM92.0459 38.264C90.6699 38.264 89.2779 38.632 88.3339 39.304L89.2299 41.048C89.8539 40.552 90.7979 40.248 91.7099 40.248C93.0539 40.248 93.6939 40.872 93.6939 41.944H91.7099C89.0859 41.944 88.0139 43 88.0139 44.52C88.0139 46.008 89.2139 47.128 91.2299 47.128C92.4939 47.128 93.3899 46.712 93.8539 45.928V47H96.1899V42.088C96.1899 39.48 94.6699 38.264 92.0459 38.264ZM91.8539 45.448C90.9739 45.448 90.4459 45.032 90.4459 44.408C90.4459 43.832 90.8139 43.4 91.9819 43.4H93.6939V44.28C93.4059 45.064 92.6859 45.448 91.8539 45.448ZM103.537 38.264C102.465 38.264 101.585 38.6 100.945 39.304V35.128H98.4489V47H100.833V46.008C101.457 46.76 102.385 47.128 103.537 47.128C105.953 47.128 107.825 45.4 107.825 42.696C107.825 39.992 105.953 38.264 103.537 38.264ZM103.105 45.08C101.857 45.08 100.913 44.184 100.913 42.696C100.913 41.208 101.857 40.312 103.105 40.312C104.353 40.312 105.297 41.208 105.297 42.696C105.297 44.184 104.353 45.08 103.105 45.08ZM112.827 38.264C111.451 38.264 110.059 38.632 109.115 39.304L110.011 41.048C110.635 40.552 111.579 40.248 112.491 40.248C113.835 40.248 114.475 40.872 114.475 41.944H112.491C109.867 41.944 108.795 43 108.795 44.52C108.795 46.008 109.995 47.128 112.011 47.128C113.275 47.128 114.171 46.712 114.635 45.928V47H116.971V42.088C116.971 39.48 115.451 38.264 112.827 38.264ZM112.635 45.448C111.755 45.448 111.227 45.032 111.227 44.408C111.227 43.832 111.595 43.4 112.763 43.4H114.475V44.28C114.187 45.064 113.467 45.448 112.635 45.448ZM124.462 38.264C123.294 38.264 122.286 38.664 121.614 39.4V38.392H119.23V47H121.726V42.744C121.726 41.16 122.59 40.424 123.79 40.424C124.894 40.424 125.534 41.064 125.534 42.456V47H128.03V42.072C128.03 39.448 126.494 38.264 124.462 38.264ZM136.658 35.128V39.304C136.034 38.6 135.138 38.264 134.082 38.264C131.65 38.264 129.778 39.992 129.778 42.696C129.778 45.4 131.65 47.128 134.082 47.128C135.234 47.128 136.146 46.76 136.77 46.008V47H139.154V35.128H136.658ZM134.514 45.08C133.266 45.08 132.306 44.184 132.306 42.696C132.306 41.208 133.266 40.312 134.514 40.312C135.746 40.312 136.706 41.208 136.706 42.696C136.706 44.184 135.746 45.08 134.514 45.08ZM145.561 47.128C148.297 47.128 150.281 45.288 150.281 42.696C150.281 40.104 148.297 38.264 145.561 38.264C142.825 38.264 140.825 40.104 140.825 42.696C140.825 45.288 142.825 47.128 145.561 47.128ZM145.561 45.08C144.312 45.08 143.353 44.184 143.353 42.696C143.353 41.208 144.312 40.312 145.561 40.312C146.809 40.312 147.753 41.208 147.753 42.696C147.753 44.184 146.809 45.08 145.561 45.08ZM152.799 44.024C151.92 44.024 151.248 44.632 151.248 45.56C151.248 46.216 151.584 46.712 152.112 46.92L151.408 49.464H152.992L153.904 47.16C154.272 46.28 154.336 45.976 154.336 45.56C154.336 44.648 153.696 44.024 152.799 44.024ZM167.07 38.392V39.496C166.414 38.664 165.422 38.264 164.222 38.264C161.838 38.264 159.918 39.912 159.918 42.424C159.918 44.936 161.838 46.584 164.222 46.584C165.342 46.584 166.286 46.232 166.942 45.512V45.88C166.942 47.432 166.174 48.232 164.414 48.232C163.31 48.232 162.11 47.848 161.374 47.256L160.382 49.048C161.39 49.832 162.974 50.232 164.606 50.232C167.71 50.232 169.438 48.76 169.438 45.56V38.392H167.07ZM164.718 44.536C163.406 44.536 162.446 43.688 162.446 42.424C162.446 41.16 163.406 40.312 164.718 40.312C166.03 40.312 166.974 41.16 166.974 42.424C166.974 43.688 166.03 44.536 164.718 44.536ZM175.233 38.264C173.857 38.264 172.465 38.632 171.521 39.304L172.417 41.048C173.041 40.552 173.985 40.248 174.897 40.248C176.241 40.248 176.881 40.872 176.881 41.944H174.897C172.273 41.944 171.201 43 171.201 44.52C171.201 46.008 172.401 47.128 174.417 47.128C175.681 47.128 176.577 46.712 177.041 45.928V47H179.377V42.088C179.377 39.48 177.857 38.264 175.233 38.264ZM175.041 45.448C174.161 45.448 173.633 45.032 173.633 44.408C173.633 43.832 174.001 43.4 175.169 43.4H176.881V44.28C176.593 45.064 175.873 45.448 175.041 45.448ZM184.02 39.528V38.392H181.636V47H184.132V42.936C184.132 41.288 185.044 40.536 186.42 40.536C186.612 40.536 186.772 40.552 186.98 40.568V38.264C185.652 38.264 184.628 38.696 184.02 39.528ZM191.89 38.264C190.514 38.264 189.122 38.632 188.178 39.304L189.074 41.048C189.698 40.552 190.642 40.248 191.554 40.248C192.898 40.248 193.538 40.872 193.538 41.944H191.554C188.93 41.944 187.858 43 187.858 44.52C187.858 46.008 189.058 47.128 191.074 47.128C192.338 47.128 193.234 46.712 193.698 45.928V47H196.034V42.088C196.034 39.48 194.514 38.264 191.89 38.264ZM191.698 45.448C190.818 45.448 190.29 45.032 190.29 44.408C190.29 43.832 190.658 43.4 191.826 43.4H193.538V44.28C193.25 45.064 192.53 45.448 191.698 45.448ZM203.525 38.264C202.357 38.264 201.349 38.664 200.677 39.4V38.392H198.293V47H200.789V42.744C200.789 41.16 201.653 40.424 202.853 40.424C203.957 40.424 204.597 41.064 204.597 42.456V47H207.093V42.072C207.093 39.448 205.557 38.264 203.525 38.264ZM214.235 44.824C213.963 45.032 213.595 45.144 213.227 45.144C212.555 45.144 212.155 44.744 212.155 44.008V40.504H214.299V38.584H212.155V36.488H209.659V38.584H208.331V40.504H209.659V44.04C209.659 46.088 210.843 47.128 212.875 47.128C213.643 47.128 214.395 46.952 214.907 46.584L214.235 44.824ZM219.78 38.264C218.404 38.264 217.012 38.632 216.068 39.304L216.964 41.048C217.588 40.552 218.532 40.248 219.444 40.248C220.788 40.248 221.428 40.872 221.428 41.944H219.444C216.82 41.944 215.748 43 215.748 44.52C215.748 46.008 216.948 47.128 218.964 47.128C220.228 47.128 221.124 46.712 221.588 45.928V47H223.924V42.088C223.924 39.48 222.404 38.264 219.78 38.264ZM219.588 45.448C218.708 45.448 218.18 45.032 218.18 44.408C218.18 43.832 218.548 43.4 219.716 43.4H221.428V44.28C221.14 45.064 220.42 45.448 219.588 45.448ZM241.739 38.264C240.443 38.264 239.323 38.792 238.635 39.672C238.027 38.728 237.003 38.264 235.803 38.264C234.699 38.264 233.739 38.648 233.099 39.384V38.392H230.715V47H233.211V42.68C233.211 41.144 233.995 40.424 235.099 40.424C236.139 40.424 236.731 41.064 236.731 42.456V47H239.227V42.68C239.227 41.144 240.011 40.424 241.131 40.424C242.139 40.424 242.763 41.064 242.763 42.456V47H245.259V42.072C245.259 39.448 243.787 38.264 241.739 38.264ZM250.968 38.264C249.592 38.264 248.2 38.632 247.256 39.304L248.152 41.048C248.776 40.552 249.72 40.248 250.632 40.248C251.976 40.248 252.616 40.872 252.616 41.944H250.632C248.008 41.944 246.936 43 246.936 44.52C246.936 46.008 248.136 47.128 250.152 47.128C251.416 47.128 252.312 46.712 252.776 45.928V47H255.112V42.088C255.112 39.48 253.592 38.264 250.968 38.264ZM250.776 45.448C249.896 45.448 249.368 45.032 249.368 44.408C249.368 43.832 249.736 43.4 250.904 43.4H252.616V44.28C252.328 45.064 251.608 45.448 250.776 45.448ZM258.619 37.192C259.547 37.192 260.171 36.584 260.171 35.752C260.171 34.984 259.547 34.408 258.619 34.408C257.691 34.408 257.067 35.016 257.067 35.8C257.067 36.584 257.691 37.192 258.619 37.192ZM257.371 47H259.867V38.392H257.371V47ZM265.079 47.128C267.655 47.128 269.143 45.992 269.143 44.392C269.143 41 263.943 42.424 263.943 40.952C263.943 40.504 264.423 40.152 265.543 40.152C266.327 40.152 267.175 40.312 268.023 40.792L268.855 39.016C268.039 38.536 266.727 38.264 265.543 38.264C263.031 38.264 261.559 39.416 261.559 41.048C261.559 44.488 266.759 43.048 266.759 44.456C266.759 44.936 266.327 45.24 265.175 45.24C264.119 45.24 262.951 44.904 262.183 44.408L261.351 46.2C262.151 46.728 263.623 47.128 265.079 47.128ZM279.375 47.128C281.183 47.128 282.607 46.328 283.231 44.952L281.295 43.896C280.831 44.728 280.143 45.08 279.359 45.08C278.095 45.08 277.103 44.2 277.103 42.696C277.103 41.192 278.095 40.312 279.359 40.312C280.143 40.312 280.831 40.68 281.295 41.496L283.231 40.456C282.607 39.048 281.183 38.264 279.375 38.264C276.575 38.264 274.575 40.104 274.575 42.696C274.575 45.288 276.575 47.128 279.375 47.128ZM287.052 39.528V38.392H284.668V47H287.164V42.936C287.164 41.288 288.076 40.536 289.452 40.536C289.644 40.536 289.804 40.552 290.012 40.568V38.264C288.684 38.264 287.66 38.696 287.052 39.528ZM298.714 34.984H296.026L293.866 37.288H295.818L298.714 34.984ZM299.85 42.728C299.85 39.96 297.898 38.264 295.37 38.264C292.746 38.264 290.778 40.12 290.778 42.696C290.778 45.256 292.714 47.128 295.69 47.128C297.242 47.128 298.442 46.648 299.242 45.736L297.914 44.296C297.322 44.856 296.666 45.128 295.754 45.128C294.442 45.128 293.53 44.472 293.29 43.4H299.802C299.818 43.192 299.85 42.92 299.85 42.728ZM295.386 40.152C296.506 40.152 297.322 40.856 297.498 41.944H293.258C293.434 40.84 294.25 40.152 295.386 40.152ZM307.783 35.128V39.304C307.159 38.6 306.263 38.264 305.207 38.264C302.775 38.264 300.903 39.992 300.903 42.696C300.903 45.4 302.775 47.128 305.207 47.128C306.359 47.128 307.271 46.76 307.895 46.008V47H310.279V35.128H307.783ZM305.639 45.08C304.391 45.08 303.431 44.184 303.431 42.696C303.431 41.208 304.391 40.312 305.639 40.312C306.871 40.312 307.831 41.208 307.831 42.696C307.831 44.184 306.871 45.08 305.639 45.08ZM313.838 37.192C314.766 37.192 315.39 36.584 315.39 35.752C315.39 34.984 314.766 34.408 313.838 34.408C312.91 34.408 312.286 35.016 312.286 35.8C312.286 36.584 312.91 37.192 313.838 37.192ZM312.59 47H315.086V38.392H312.59V47ZM322.282 44.824C322.01 45.032 321.642 45.144 321.274 45.144C320.602 45.144 320.202 44.744 320.202 44.008V40.504H322.346V38.584H320.202V36.488H317.706V38.584H316.378V40.504H317.706V44.04C317.706 46.088 318.89 47.128 320.922 47.128C321.69 47.128 322.442 46.952 322.954 46.584L322.282 44.824ZM328.186 47.128C330.922 47.128 332.906 45.288 332.906 42.696C332.906 40.104 330.922 38.264 328.186 38.264C325.45 38.264 323.45 40.104 323.45 42.696C323.45 45.288 325.45 47.128 328.186 47.128ZM328.186 45.08C326.938 45.08 325.978 44.184 325.978 42.696C325.978 41.208 326.938 40.312 328.186 40.312C329.434 40.312 330.378 41.208 330.378 42.696C330.378 44.184 329.434 45.08 328.186 45.08ZM337.47 47.128C340.046 47.128 341.534 45.992 341.534 44.392C341.534 41 336.334 42.424 336.334 40.952C336.334 40.504 336.814 40.152 337.934 40.152C338.718 40.152 339.566 40.312 340.414 40.792L341.246 39.016C340.43 38.536 339.118 38.264 337.934 38.264C335.422 38.264 333.95 39.416 333.95 41.048C333.95 44.488 339.15 43.048 339.15 44.456C339.15 44.936 338.718 45.24 337.566 45.24C336.51 45.24 335.342 44.904 334.574 44.408L333.742 46.2C334.542 46.728 336.014 47.128 337.47 47.128ZM356.037 42.728C356.037 39.96 354.085 38.264 351.557 38.264C348.933 38.264 346.965 40.12 346.965 42.696C346.965 45.256 348.901 47.128 351.877 47.128C353.429 47.128 354.629 46.648 355.429 45.736L354.101 44.296C353.509 44.856 352.853 45.128 351.941 45.128C350.629 45.128 349.717 44.472 349.477 43.4H355.989C356.005 43.192 356.037 42.92 356.037 42.728ZM351.573 40.152C352.693 40.152 353.509 40.856 353.685 41.944H349.445C349.621 40.84 350.437 40.152 351.573 40.152ZM73.312 67.128C75.12 67.128 76.544 66.328 77.168 64.952L75.232 63.896C74.768 64.728 74.08 65.08 73.296 65.08C72.032 65.08 71.04 64.2 71.04 62.696C71.04 61.192 72.032 60.312 73.296 60.312C74.08 60.312 74.768 60.68 75.232 61.496L77.168 60.456C76.544 59.048 75.12 58.264 73.312 58.264C70.512 58.264 68.512 60.104 68.512 62.696C68.512 65.288 70.512 67.128 73.312 67.128ZM82.5918 67.128C85.3278 67.128 87.3118 65.288 87.3118 62.696C87.3118 60.104 85.3278 58.264 82.5918 58.264C79.8558 58.264 77.8558 60.104 77.8558 62.696C77.8558 65.288 79.8558 67.128 82.5918 67.128ZM82.5918 65.08C81.3438 65.08 80.3838 64.184 80.3838 62.696C80.3838 61.208 81.3438 60.312 82.5918 60.312C83.8398 60.312 84.7838 61.208 84.7838 62.696C84.7838 64.184 83.8398 65.08 82.5918 65.08ZM94.2121 58.264C93.0441 58.264 92.0361 58.664 91.3641 59.4V58.392H88.9801V67H91.4761V62.744C91.4761 61.16 92.3401 60.424 93.5401 60.424C94.6441 60.424 95.2841 61.064 95.2841 62.456V67H97.7801V62.072C97.7801 59.448 96.2441 58.264 94.2121 58.264ZM104.923 64.824C104.651 65.032 104.283 65.144 103.915 65.144C103.243 65.144 102.843 64.744 102.843 64.008V60.504H104.987V58.584H102.843V56.488H100.347V58.584H99.0186V60.504H100.347V64.04C100.347 66.088 101.531 67.128 103.563 67.128C104.331 67.128 105.083 66.952 105.595 66.584L104.923 64.824ZM108.244 57.192C109.172 57.192 109.796 56.584 109.796 55.752C109.796 54.984 109.172 54.408 108.244 54.408C107.316 54.408 106.692 55.016 106.692 55.8C106.692 56.584 107.316 57.192 108.244 57.192ZM106.996 67H109.492V58.392H106.996V67ZM117.04 58.264C115.872 58.264 114.864 58.664 114.192 59.4V58.392H111.808V67H114.304V62.744C114.304 61.16 115.168 60.424 116.368 60.424C117.472 60.424 118.112 61.064 118.112 62.456V67H120.608V62.072C120.608 59.448 119.072 58.264 117.04 58.264ZM129.047 58.392V62.648C129.047 64.232 128.215 64.968 127.063 64.968C125.959 64.968 125.319 64.328 125.319 62.888V58.392H122.823V63.256C122.823 65.912 124.343 67.128 126.503 67.128C127.559 67.128 128.519 66.728 129.175 65.976V67H131.543V58.392H129.047ZM142.287 62.728C142.287 59.96 140.335 58.264 137.807 58.264C135.183 58.264 133.215 60.12 133.215 62.696C133.215 65.256 135.151 67.128 138.127 67.128C139.679 67.128 140.879 66.648 141.679 65.736L140.351 64.296C139.759 64.856 139.103 65.128 138.191 65.128C136.879 65.128 135.967 64.472 135.727 63.4H142.239C142.255 63.192 142.287 62.92 142.287 62.728ZM137.823 60.152C138.943 60.152 139.759 60.856 139.935 61.944H135.695C135.871 60.84 136.687 60.152 137.823 60.152ZM151.952 58.264C150.576 58.264 149.184 58.632 148.24 59.304L149.136 61.048C149.76 60.552 150.704 60.248 151.616 60.248C152.96 60.248 153.6 60.872 153.6 61.944H151.616C148.992 61.944 147.92 63 147.92 64.52C147.92 66.008 149.12 67.128 151.136 67.128C152.4 67.128 153.296 66.712 153.76 65.928V67H156.096V62.088C156.096 59.48 154.576 58.264 151.952 58.264ZM151.76 65.448C150.88 65.448 150.352 65.032 150.352 64.408C150.352 63.832 150.72 63.4 151.888 63.4H153.6V64.28C153.312 65.064 152.592 65.448 151.76 65.448ZM163.443 58.264C162.291 58.264 161.363 58.632 160.739 59.384V58.392H158.355V70.104H160.851V66.088C161.491 66.792 162.371 67.128 163.443 67.128C165.859 67.128 167.731 65.4 167.731 62.696C167.731 59.992 165.859 58.264 163.443 58.264ZM163.011 65.08C161.763 65.08 160.819 64.184 160.819 62.696C160.819 61.208 161.763 60.312 163.011 60.312C164.259 60.312 165.203 61.208 165.203 62.696C165.203 64.184 164.259 65.08 163.011 65.08ZM171.786 59.528V58.392H169.402V67H171.898V62.936C171.898 61.288 172.81 60.536 174.186 60.536C174.378 60.536 174.538 60.552 174.746 60.568V58.264C173.418 58.264 172.394 58.696 171.786 59.528ZM180.248 67.128C182.984 67.128 184.968 65.288 184.968 62.696C184.968 60.104 182.984 58.264 180.248 58.264C177.512 58.264 175.512 60.104 175.512 62.696C175.512 65.288 177.512 67.128 180.248 67.128ZM180.248 65.08C179 65.08 178.04 64.184 178.04 62.696C178.04 61.208 179 60.312 180.248 60.312C181.496 60.312 182.44 61.208 182.44 62.696C182.44 64.184 181.496 65.08 180.248 65.08ZM192.546 58.392L190.082 64.248L187.698 58.392H185.122L188.738 67H191.314L194.946 58.392H192.546ZM204.162 62.728C204.162 59.96 202.21 58.264 199.682 58.264C197.058 58.264 195.09 60.12 195.09 62.696C195.09 65.256 197.026 67.128 200.002 67.128C201.554 67.128 202.754 66.648 203.554 65.736L202.226 64.296C201.634 64.856 200.978 65.128 200.066 65.128C198.754 65.128 197.842 64.472 197.602 63.4H204.114C204.13 63.192 204.162 62.92 204.162 62.728ZM199.698 60.152C200.818 60.152 201.634 60.856 201.81 61.944H197.57C197.746 60.84 198.562 60.152 199.698 60.152ZM207.072 57.192C208 57.192 208.624 56.584 208.624 55.752C208.624 54.984 208 54.408 207.072 54.408C206.144 54.408 205.52 55.016 205.52 55.8C205.52 56.584 206.144 57.192 207.072 57.192ZM205.824 67H208.32V58.392H205.824V67ZM215.516 64.824C215.244 65.032 214.876 65.144 214.508 65.144C213.836 65.144 213.436 64.744 213.436 64.008V60.504H215.58V58.584H213.436V56.488H210.94V58.584H209.612V60.504H210.94V64.04C210.94 66.088 212.124 67.128 214.156 67.128C214.924 67.128 215.676 66.952 216.188 66.584L215.516 64.824ZM221.062 58.264C219.686 58.264 218.294 58.632 217.35 59.304L218.246 61.048C218.87 60.552 219.814 60.248 220.726 60.248C222.07 60.248 222.71 60.872 222.71 61.944H220.726C218.102 61.944 217.03 63 217.03 64.52C217.03 66.008 218.23 67.128 220.246 67.128C221.51 67.128 222.406 66.712 222.87 65.928V67H225.206V62.088C225.206 59.48 223.686 58.264 221.062 58.264ZM220.87 65.448C219.99 65.448 219.462 65.032 219.462 64.408C219.462 63.832 219.83 63.4 220.998 63.4H222.71V64.28C222.422 65.064 221.702 65.448 220.87 65.448ZM232.697 58.264C231.529 58.264 230.521 58.664 229.849 59.4V58.392H227.465V67H229.961V62.744C229.961 61.16 230.825 60.424 232.025 60.424C233.129 60.424 233.769 61.064 233.769 62.456V67H236.265V62.072C236.265 59.448 234.729 58.264 232.697 58.264ZM244.893 55.128V59.304C244.269 58.6 243.373 58.264 242.317 58.264C239.885 58.264 238.013 59.992 238.013 62.696C238.013 65.4 239.885 67.128 242.317 67.128C243.469 67.128 244.381 66.76 245.005 66.008V67H247.389V55.128H244.893ZM242.749 65.08C241.501 65.08 240.541 64.184 240.541 62.696C240.541 61.208 241.501 60.312 242.749 60.312C243.981 60.312 244.941 61.208 244.941 62.696C244.941 64.184 243.981 65.08 242.749 65.08ZM253.795 67.128C256.531 67.128 258.515 65.288 258.515 62.696C258.515 60.104 256.531 58.264 253.795 58.264C251.059 58.264 249.059 60.104 249.059 62.696C249.059 65.288 251.059 67.128 253.795 67.128ZM253.795 65.08C252.547 65.08 251.587 64.184 251.587 62.696C251.587 61.208 252.547 60.312 253.795 60.312C255.043 60.312 255.987 61.208 255.987 62.696C255.987 64.184 255.043 65.08 253.795 65.08ZM268.811 67.128C271.547 67.128 273.531 65.288 273.531 62.696C273.531 60.104 271.547 58.264 268.811 58.264C266.075 58.264 264.075 60.104 264.075 62.696C264.075 65.288 266.075 67.128 268.811 67.128ZM268.811 65.08C267.562 65.08 266.603 64.184 266.603 62.696C266.603 61.208 267.562 60.312 268.811 60.312C270.059 60.312 271.003 61.208 271.003 62.696C271.003 64.184 270.059 65.08 268.811 65.08ZM278.095 67.128C280.671 67.128 282.159 65.992 282.159 64.392C282.159 61 276.959 62.424 276.959 60.952C276.959 60.504 277.439 60.152 278.559 60.152C279.343 60.152 280.191 60.312 281.039 60.792L281.871 59.016C281.055 58.536 279.743 58.264 278.559 58.264C276.047 58.264 274.575 59.416 274.575 61.048C274.575 64.488 279.775 63.048 279.775 64.456C279.775 64.936 279.343 65.24 278.191 65.24C277.135 65.24 275.967 64.904 275.199 64.408L274.367 66.2C275.167 66.728 276.639 67.128 278.095 67.128ZM293.318 58.264C292.246 58.264 291.366 58.6 290.726 59.304V55.128H288.23V67H290.614V66.008C291.238 66.76 292.166 67.128 293.318 67.128C295.734 67.128 297.606 65.4 297.606 62.696C297.606 59.992 295.734 58.264 293.318 58.264ZM292.886 65.08C291.638 65.08 290.694 64.184 290.694 62.696C290.694 61.208 291.638 60.312 292.886 60.312C294.134 60.312 295.078 61.208 295.078 62.696C295.078 64.184 294.134 65.08 292.886 65.08ZM307.709 62.728C307.709 59.96 305.757 58.264 303.229 58.264C300.605 58.264 298.637 60.12 298.637 62.696C298.637 65.256 300.573 67.128 303.549 67.128C305.101 67.128 306.301 66.648 307.101 65.736L305.773 64.296C305.181 64.856 304.525 65.128 303.613 65.128C302.301 65.128 301.389 64.472 301.149 63.4H307.661C307.677 63.192 307.709 62.92 307.709 62.728ZM303.245 60.152C304.365 60.152 305.181 60.856 305.357 61.944H301.117C301.293 60.84 302.109 60.152 303.245 60.152ZM314.603 58.264C313.435 58.264 312.427 58.664 311.755 59.4V58.392H309.371V67H311.867V62.744C311.867 61.16 312.731 60.424 313.931 60.424C315.035 60.424 315.675 61.064 315.675 62.456V67H318.171V62.072C318.171 59.448 316.635 58.264 314.603 58.264ZM328.959 62.728C328.959 59.96 327.007 58.264 324.479 58.264C321.855 58.264 319.887 60.12 319.887 62.696C319.887 65.256 321.823 67.128 324.799 67.128C326.351 67.128 327.551 66.648 328.351 65.736L327.023 64.296C326.431 64.856 325.775 65.128 324.863 65.128C323.551 65.128 322.639 64.472 322.399 63.4H328.911C328.927 63.192 328.959 62.92 328.959 62.728ZM324.495 60.152C325.615 60.152 326.431 60.856 326.607 61.944H322.367C322.543 60.84 323.359 60.152 324.495 60.152ZM333.357 58.216C333.357 57.368 333.757 56.968 334.493 56.968C334.877 56.968 335.229 57.08 335.501 57.272L336.157 55.464C335.693 55.144 334.957 55 334.253 55C332.109 55 330.925 56.264 330.925 58.2V58.584H329.597V60.504H330.925V67H333.421V60.504H335.565V58.584H333.357V58.216ZM337.882 57.288H339.834L342.73 54.984H340.042L337.882 57.288ZM338.09 67H340.586V58.392H338.09V67ZM347.062 67.128C348.87 67.128 350.294 66.328 350.918 64.952L348.982 63.896C348.518 64.728 347.83 65.08 347.046 65.08C345.782 65.08 344.79 64.2 344.79 62.696C344.79 61.192 345.782 60.312 347.046 60.312C347.83 60.312 348.518 60.68 348.982 61.496L350.918 60.456C350.294 59.048 348.87 58.264 347.062 58.264C344.262 58.264 342.262 60.104 342.262 62.696C342.262 65.288 344.262 67.128 347.062 67.128ZM353.603 57.192C354.531 57.192 355.155 56.584 355.155 55.752C355.155 54.984 354.531 54.408 353.603 54.408C352.675 54.408 352.051 55.016 352.051 55.8C352.051 56.584 352.675 57.192 353.603 57.192ZM352.355 67H354.851V58.392H352.355V67ZM361.264 67.128C364 67.128 365.984 65.288 365.984 62.696C365.984 60.104 364 58.264 361.264 58.264C358.528 58.264 356.528 60.104 356.528 62.696C356.528 65.288 358.528 67.128 361.264 67.128ZM361.264 65.08C360.016 65.08 359.056 64.184 359.056 62.696C359.056 61.208 360.016 60.312 361.264 60.312C362.512 60.312 363.456 61.208 363.456 62.696C363.456 64.184 362.512 65.08 361.264 65.08ZM370.548 67.128C373.124 67.128 374.612 65.992 374.612 64.392C374.612 61 369.412 62.424 369.412 60.952C369.412 60.504 369.892 60.152 371.012 60.152C371.796 60.152 372.644 60.312 373.492 60.792L374.324 59.016C373.508 58.536 372.196 58.264 371.012 58.264C368.5 58.264 367.028 59.416 367.028 61.048C367.028 64.488 372.228 63.048 372.228 64.456C372.228 64.936 371.796 65.24 370.644 65.24C369.588 65.24 368.42 64.904 367.652 64.408L366.82 66.2C367.62 66.728 369.092 67.128 370.548 67.128Z" fill="white"/>
<path fill-rule="evenodd" clip-rule="evenodd" d="M33.9577 42.9584C33.9577 43.7634 33.3043 44.4167 32.4993 44.4167C31.6943 44.4167 31.041 43.7634 31.041 42.9584V35.6667C31.041 34.8617 31.6943 34.2084 32.4993 34.2084C33.3043 34.2084 33.9577 34.8617 33.9577 35.6667V42.9584ZM32.4993 48.7917C31.6943 48.7917 31.041 48.1384 31.041 47.3334C31.041 46.5284 31.6943 45.875 32.4993 45.875C33.3043 45.875 33.9577 46.5284 33.9577 47.3334C33.9577 48.1384 33.3043 48.7917 32.4993 48.7917ZM32.4993 26.9167C24.445 26.9167 17.916 33.4456 17.916 41.5C17.916 49.5544 24.445 56.0834 32.4993 56.0834C40.5537 56.0834 47.0827 49.5544 47.0827 41.5C47.0827 33.4456 40.5537 26.9167 32.4993 26.9167Z" fill="white"/>
</svg>
